ISO-10303-21;
HEADER;
/* Generated by software containing ST-Developer
 * from STEP Tools, Inc. (www.steptools.com) 
 */
/* OPTION: using custom renumber hook */

FILE_DESCRIPTION(
/* description */ ('STEP AP242 Edition 2',
'CAx-IF Rec.Pracs.---Representation and Presentation of Product Manufa
cturing Information (PMI)---4.0---2014-10-13',
'CAx-IF Rec.Pracs.---3D Tessellated Geometry---0.4---2014-09-14','2;1',
'CAx-IF Rec.Pracs.---User Defined Attributes---1.5---2016-08-15'),
/* implementation_level */ '2;1');

FILE_NAME(
/* name */ 'Part Studio 1',
/* time_stamp */ '2026-05-23T23:13:47Z',
/* author */ (''),
/* organization */ (''),
/* preprocessor_version */ 'ST-DEVELOPER v20',
/* originating_system */ 'ONSHAPE BY PTC INC, 1.215',
/* authorisation */ '  ');

FILE_SCHEMA (('AP242_MANAGED_MODEL_BASED_3D_ENGINEERING_MIM_LF { 1 0 10303 442 3 1 4 }'));
ENDSEC;

DATA;
#10=SHAPE_REPRESENTATION_RELATIONSHIP('','',#1024,#12);
#11=SHAPE_REPRESENTATION_RELATIONSHIP('','',#1025,#13);
#12=ADVANCED_BREP_SHAPE_REPRESENTATION('',(#1020),#1630);
#13=ADVANCED_BREP_SHAPE_REPRESENTATION('',(#1021),#1631);
#14=CYLINDRICAL_SURFACE('',#1048,0.0023);
#15=CYLINDRICAL_SURFACE('',#1049,0.0023);
#16=CYLINDRICAL_SURFACE('',#1050,0.0023);
#17=CYLINDRICAL_SURFACE('',#1051,0.0023);
#18=CYLINDRICAL_SURFACE('',#1052,0.05745);
#19=CYLINDRICAL_SURFACE('',#1079,0.002);
#20=CYLINDRICAL_SURFACE('',#1080,0.002);
#21=CYLINDRICAL_SURFACE('',#1082,0.002);
#22=CYLINDRICAL_SURFACE('',#1085,0.002);
#23=CYLINDRICAL_SURFACE('',#1096,0.004);
#24=LINE('',#1360,#137);
#25=LINE('',#1363,#138);
#26=LINE('',#1365,#139);
#27=LINE('',#1367,#140);
#28=LINE('',#1379,#141);
#29=LINE('',#1382,#142);
#30=LINE('',#1384,#143);
#31=LINE('',#1386,#144);
#32=LINE('',#1392,#145);
#33=LINE('',#1395,#146);
#34=LINE('',#1396,#147);
#35=LINE('',#1398,#148);
#36=LINE('',#1400,#149);
#37=LINE('',#1402,#150);
#38=LINE('',#1404,#151);
#39=LINE('',#1406,#152);
#40=LINE('',#1408,#153);
#41=LINE('',#1411,#154);
#42=LINE('',#1413,#155);
#43=LINE('',#1415,#156);
#44=LINE('',#1417,#157);
#45=LINE('',#1418,#158);
#46=LINE('',#1420,#159);
#47=LINE('',#1423,#160);
#48=LINE('',#1425,#161);
#49=LINE('',#1427,#162);
#50=LINE('',#1428,#163);
#51=LINE('',#1430,#164);
#52=LINE('',#1432,#165);
#53=LINE('',#1435,#166);
#54=LINE('',#1437,#167);
#55=LINE('',#1439,#168);
#56=LINE('',#1446,#169);
#57=LINE('',#1447,#170);
#58=LINE('',#1449,#171);
#59=LINE('',#1451,#172);
#60=LINE('',#1455,#173);
#61=LINE('',#1458,#174);
#62=LINE('',#1460,#175);
#63=LINE('',#1462,#176);
#64=LINE('',#1463,#177);
#65=LINE('',#1466,#178);
#66=LINE('',#1468,#179);
#67=LINE('',#1470,#180);
#68=LINE('',#1472,#181);
#69=LINE('',#1475,#182);
#70=LINE('',#1477,#183);
#71=LINE('',#1479,#184);
#72=LINE('',#1480,#185);
#73=LINE('',#1483,#186);
#74=LINE('',#1485,#187);
#75=LINE('',#1487,#188);
#76=LINE('',#1491,#189);
#77=LINE('',#1495,#190);
#78=LINE('',#1499,#191);
#79=LINE('',#1503,#192);
#80=LINE('',#1504,#193);
#81=LINE('',#1507,#194);
#82=LINE('',#1509,#195);
#83=LINE('',#1511,#196);
#84=LINE('',#1513,#197);
#85=LINE('',#1516,#198);
#86=LINE('',#1518,#199);
#87=LINE('',#1520,#200);
#88=LINE('',#1524,#201);
#89=LINE('',#1526,#202);
#90=LINE('',#1528,#203);
#91=LINE('',#1530,#204);
#92=LINE('',#1532,#205);
#93=LINE('',#1534,#206);
#94=LINE('',#1538,#207);
#95=LINE('',#1542,#208);
#96=LINE('',#1546,#209);
#97=LINE('',#1547,#210);
#98=LINE('',#1550,#211);
#99=LINE('',#1552,#212);
#100=LINE('',#1554,#213);
#101=LINE('',#1556,#214);
#102=LINE('',#1559,#215);
#103=LINE('',#1561,#216);
#104=LINE('',#1563,#217);
#105=LINE('',#1565,#218);
#106=LINE('',#1568,#219);
#107=LINE('',#1570,#220);
#108=LINE('',#1572,#221);
#109=LINE('',#1574,#222);
#110=LINE('',#1575,#223);
#111=LINE('',#1578,#224);
#112=LINE('',#1579,#225);
#113=LINE('',#1580,#226);
#114=LINE('',#1581,#227);
#115=LINE('',#1583,#228);
#116=LINE('',#1584,#229);
#117=LINE('',#1585,#230);
#118=LINE('',#1586,#231);
#119=LINE('',#1587,#232);
#120=LINE('',#1588,#233);
#121=LINE('',#1592,#234);
#122=LINE('',#1593,#235);
#123=LINE('',#1597,#236);
#124=LINE('',#1599,#237);
#125=LINE('',#1601,#238);
#126=LINE('',#1603,#239);
#127=LINE('',#1605,#240);
#128=LINE('',#1607,#241);
#129=LINE('',#1612,#242);
#130=LINE('',#1613,#243);
#131=LINE('',#1615,#244);
#132=LINE('',#1617,#245);
#133=LINE('',#1620,#246);
#134=LINE('',#1621,#247);
#135=LINE('',#1623,#248);
#136=LINE('',#1625,#249);
#137=VECTOR('',#1107,1.);
#138=VECTOR('',#1108,1.);
#139=VECTOR('',#1109,1.);
#140=VECTOR('',#1110,1.);
#141=VECTOR('',#1123,1.);
#142=VECTOR('',#1124,1.);
#143=VECTOR('',#1125,1.);
#144=VECTOR('',#1126,1.);
#145=VECTOR('',#1133,1.);
#146=VECTOR('',#1134,1.);
#147=VECTOR('',#1135,1.);
#148=VECTOR('',#1138,1.);
#149=VECTOR('',#1139,1.);
#150=VECTOR('',#1142,1.);
#151=VECTOR('',#1143,1.);
#152=VECTOR('',#1146,1.);
#153=VECTOR('',#1149,1.);
#154=VECTOR('',#1150,1.);
#155=VECTOR('',#1151,1.);
#156=VECTOR('',#1152,1.);
#157=VECTOR('',#1155,1.);
#158=VECTOR('',#1156,1.);
#159=VECTOR('',#1159,1.);
#160=VECTOR('',#1160,1.);
#161=VECTOR('',#1161,1.);
#162=VECTOR('',#1162,1.);
#163=VECTOR('',#1163,1.);
#164=VECTOR('',#1166,1.);
#165=VECTOR('',#1169,1.);
#166=VECTOR('',#1170,1.);
#167=VECTOR('',#1171,1.);
#168=VECTOR('',#1172,1.);
#169=VECTOR('',#1185,1.);
#170=VECTOR('',#1186,1.);
#171=VECTOR('',#1189,1.);
#172=VECTOR('',#1192,1.);
#173=VECTOR('',#1199,1.);
#174=VECTOR('',#1200,1.);
#175=VECTOR('',#1201,1.);
#176=VECTOR('',#1202,1.);
#177=VECTOR('',#1203,1.);
#178=VECTOR('',#1204,1.);
#179=VECTOR('',#1205,1.);
#180=VECTOR('',#1206,1.);
#181=VECTOR('',#1209,1.);
#182=VECTOR('',#1210,1.);
#183=VECTOR('',#1211,1.);
#184=VECTOR('',#1212,1.);
#185=VECTOR('',#1213,1.);
#186=VECTOR('',#1214,1.);
#187=VECTOR('',#1215,1.);
#188=VECTOR('',#1216,1.);
#189=VECTOR('',#1219,1.);
#190=VECTOR('',#1222,1.);
#191=VECTOR('',#1225,1.);
#192=VECTOR('',#1228,1.);
#193=VECTOR('',#1229,1.);
#194=VECTOR('',#1230,1.);
#195=VECTOR('',#1231,1.);
#196=VECTOR('',#1232,1.);
#197=VECTOR('',#1235,1.);
#198=VECTOR('',#1236,1.);
#199=VECTOR('',#1237,1.);
#200=VECTOR('',#1238,1.);
#201=VECTOR('',#1241,1.);
#202=VECTOR('',#1242,1.);
#203=VECTOR('',#1243,1.);
#204=VECTOR('',#1244,1.);
#205=VECTOR('',#1245,1.);
#206=VECTOR('',#1246,1.);
#207=VECTOR('',#1249,1.);
#208=VECTOR('',#1252,1.);
#209=VECTOR('',#1255,1.);
#210=VECTOR('',#1256,1.);
#211=VECTOR('',#1257,1.);
#212=VECTOR('',#1258,1.);
#213=VECTOR('',#1259,1.);
#214=VECTOR('',#1262,1.);
#215=VECTOR('',#1263,1.);
#216=VECTOR('',#1264,1.);
#217=VECTOR('',#1265,1.);
#218=VECTOR('',#1268,1.);
#219=VECTOR('',#1269,1.);
#220=VECTOR('',#1270,1.);
#221=VECTOR('',#1271,1.);
#222=VECTOR('',#1274,1.);
#223=VECTOR('',#1275,1.);
#224=VECTOR('',#1280,1.);
#225=VECTOR('',#1281,1.);
#226=VECTOR('',#1282,1.);
#227=VECTOR('',#1283,1.);
#228=VECTOR('',#1286,1.);
#229=VECTOR('',#1287,1.);
#230=VECTOR('',#1288,1.);
#231=VECTOR('',#1289,1.);
#232=VECTOR('',#1290,1.);
#233=VECTOR('',#1291,1.);
#234=VECTOR('',#1296,1.);
#235=VECTOR('',#1297,1.);
#236=VECTOR('',#1304,1.);
#237=VECTOR('',#1307,1.);
#238=VECTOR('',#1310,1.);
#239=VECTOR('',#1313,1.);
#240=VECTOR('',#1316,1.);
#241=VECTOR('',#1319,1.);
#242=VECTOR('',#1328,1.);
#243=VECTOR('',#1329,1.);
#244=VECTOR('',#1332,1.);
#245=VECTOR('',#1335,1.);
#246=VECTOR('',#1340,1.);
#247=VECTOR('',#1341,1.);
#248=VECTOR('',#1344,1.);
#249=VECTOR('',#1347,1.);
#250=ORIENTED_EDGE('',*,*,#516,.F.);
#251=ORIENTED_EDGE('',*,*,#517,.T.);
#252=ORIENTED_EDGE('',*,*,#518,.F.);
#253=ORIENTED_EDGE('',*,*,#519,.T.);
#254=ORIENTED_EDGE('',*,*,#520,.T.);
#255=ORIENTED_EDGE('',*,*,#521,.T.);
#256=ORIENTED_EDGE('',*,*,#522,.T.);
#257=ORIENTED_EDGE('',*,*,#523,.F.);
#258=ORIENTED_EDGE('',*,*,#524,.T.);
#259=ORIENTED_EDGE('',*,*,#525,.F.);
#260=ORIENTED_EDGE('',*,*,#526,.T.);
#261=ORIENTED_EDGE('',*,*,#527,.T.);
#262=ORIENTED_EDGE('',*,*,#528,.F.);
#263=ORIENTED_EDGE('',*,*,#529,.F.);
#264=ORIENTED_EDGE('',*,*,#530,.F.);
#265=ORIENTED_EDGE('',*,*,#531,.F.);
#266=ORIENTED_EDGE('',*,*,#532,.F.);
#267=ORIENTED_EDGE('',*,*,#533,.F.);
#268=ORIENTED_EDGE('',*,*,#534,.F.);
#269=ORIENTED_EDGE('',*,*,#535,.F.);
#270=ORIENTED_EDGE('',*,*,#528,.T.);
#271=ORIENTED_EDGE('',*,*,#536,.T.);
#272=ORIENTED_EDGE('',*,*,#535,.T.);
#273=ORIENTED_EDGE('',*,*,#537,.F.);
#274=ORIENTED_EDGE('',*,*,#538,.F.);
#275=ORIENTED_EDGE('',*,*,#529,.T.);
#276=ORIENTED_EDGE('',*,*,#538,.T.);
#277=ORIENTED_EDGE('',*,*,#539,.F.);
#278=ORIENTED_EDGE('',*,*,#540,.F.);
#279=ORIENTED_EDGE('',*,*,#530,.T.);
#280=ORIENTED_EDGE('',*,*,#540,.T.);
#281=ORIENTED_EDGE('',*,*,#541,.F.);
#282=ORIENTED_EDGE('',*,*,#536,.F.);
#283=ORIENTED_EDGE('',*,*,#531,.T.);
#284=ORIENTED_EDGE('',*,*,#542,.F.);
#285=ORIENTED_EDGE('',*,*,#543,.F.);
#286=ORIENTED_EDGE('',*,*,#544,.F.);
#287=ORIENTED_EDGE('',*,*,#545,.F.);
#288=ORIENTED_EDGE('',*,*,#534,.T.);
#289=ORIENTED_EDGE('',*,*,#541,.T.);
#290=ORIENTED_EDGE('',*,*,#539,.T.);
#291=ORIENTED_EDGE('',*,*,#537,.T.);
#292=ORIENTED_EDGE('',*,*,#542,.T.);
#293=ORIENTED_EDGE('',*,*,#546,.F.);
#294=ORIENTED_EDGE('',*,*,#519,.F.);
#295=ORIENTED_EDGE('',*,*,#547,.T.);
#296=ORIENTED_EDGE('',*,*,#548,.T.);
#297=ORIENTED_EDGE('',*,*,#549,.T.);
#298=ORIENTED_EDGE('',*,*,#550,.T.);
#299=ORIENTED_EDGE('',*,*,#551,.T.);
#300=ORIENTED_EDGE('',*,*,#547,.F.);
#301=ORIENTED_EDGE('',*,*,#522,.F.);
#302=ORIENTED_EDGE('',*,*,#552,.T.);
#303=ORIENTED_EDGE('',*,*,#543,.T.);
#304=ORIENTED_EDGE('',*,*,#552,.F.);
#305=ORIENTED_EDGE('',*,*,#521,.F.);
#306=ORIENTED_EDGE('',*,*,#553,.T.);
#307=ORIENTED_EDGE('',*,*,#544,.T.);
#308=ORIENTED_EDGE('',*,*,#554,.F.);
#309=ORIENTED_EDGE('',*,*,#555,.F.);
#310=ORIENTED_EDGE('',*,*,#556,.F.);
#311=ORIENTED_EDGE('',*,*,#557,.F.);
#312=ORIENTED_EDGE('',*,*,#553,.F.);
#313=ORIENTED_EDGE('',*,*,#520,.F.);
#314=ORIENTED_EDGE('',*,*,#546,.T.);
#315=ORIENTED_EDGE('',*,*,#545,.T.);
#316=ORIENTED_EDGE('',*,*,#518,.T.);
#317=ORIENTED_EDGE('',*,*,#527,.F.);
#318=ORIENTED_EDGE('',*,*,#517,.F.);
#319=ORIENTED_EDGE('',*,*,#532,.T.);
#320=ORIENTED_EDGE('',*,*,#523,.T.);
#321=ORIENTED_EDGE('',*,*,#526,.F.);
#322=ORIENTED_EDGE('',*,*,#524,.F.);
#323=ORIENTED_EDGE('',*,*,#533,.T.);
#324=ORIENTED_EDGE('',*,*,#525,.T.);
#325=ORIENTED_EDGE('',*,*,#516,.T.);
#326=ORIENTED_EDGE('',*,*,#548,.F.);
#327=ORIENTED_EDGE('',*,*,#558,.F.);
#328=ORIENTED_EDGE('',*,*,#556,.T.);
#329=ORIENTED_EDGE('',*,*,#559,.T.);
#330=ORIENTED_EDGE('',*,*,#558,.T.);
#331=ORIENTED_EDGE('',*,*,#551,.F.);
#332=ORIENTED_EDGE('',*,*,#560,.F.);
#333=ORIENTED_EDGE('',*,*,#557,.T.);
#334=ORIENTED_EDGE('',*,*,#560,.T.);
#335=ORIENTED_EDGE('',*,*,#550,.F.);
#336=ORIENTED_EDGE('',*,*,#561,.F.);
#337=ORIENTED_EDGE('',*,*,#554,.T.);
#338=ORIENTED_EDGE('',*,*,#561,.T.);
#339=ORIENTED_EDGE('',*,*,#549,.F.);
#340=ORIENTED_EDGE('',*,*,#559,.F.);
#341=ORIENTED_EDGE('',*,*,#555,.T.);
#342=ORIENTED_EDGE('',*,*,#562,.F.);
#343=ORIENTED_EDGE('',*,*,#563,.F.);
#344=ORIENTED_EDGE('',*,*,#564,.T.);
#345=ORIENTED_EDGE('',*,*,#565,.T.);
#346=ORIENTED_EDGE('',*,*,#566,.F.);
#347=ORIENTED_EDGE('',*,*,#567,.T.);
#348=ORIENTED_EDGE('',*,*,#568,.T.);
#349=ORIENTED_EDGE('',*,*,#569,.F.);
#350=ORIENTED_EDGE('',*,*,#570,.F.);
#351=ORIENTED_EDGE('',*,*,#571,.T.);
#352=ORIENTED_EDGE('',*,*,#572,.T.);
#353=ORIENTED_EDGE('',*,*,#573,.F.);
#354=ORIENTED_EDGE('',*,*,#574,.T.);
#355=ORIENTED_EDGE('',*,*,#575,.F.);
#356=ORIENTED_EDGE('',*,*,#576,.F.);
#357=ORIENTED_EDGE('',*,*,#577,.T.);
#358=ORIENTED_EDGE('',*,*,#578,.F.);
#359=ORIENTED_EDGE('',*,*,#579,.T.);
#360=ORIENTED_EDGE('',*,*,#580,.F.);
#361=ORIENTED_EDGE('',*,*,#581,.T.);
#362=ORIENTED_EDGE('',*,*,#582,.F.);
#363=ORIENTED_EDGE('',*,*,#583,.F.);
#364=ORIENTED_EDGE('',*,*,#584,.F.);
#365=ORIENTED_EDGE('',*,*,#585,.F.);
#366=ORIENTED_EDGE('',*,*,#586,.F.);
#367=ORIENTED_EDGE('',*,*,#587,.T.);
#368=ORIENTED_EDGE('',*,*,#588,.T.);
#369=ORIENTED_EDGE('',*,*,#589,.F.);
#370=ORIENTED_EDGE('',*,*,#590,.F.);
#371=ORIENTED_EDGE('',*,*,#591,.F.);
#372=ORIENTED_EDGE('',*,*,#592,.T.);
#373=ORIENTED_EDGE('',*,*,#593,.T.);
#374=ORIENTED_EDGE('',*,*,#594,.F.);
#375=ORIENTED_EDGE('',*,*,#595,.F.);
#376=ORIENTED_EDGE('',*,*,#596,.F.);
#377=ORIENTED_EDGE('',*,*,#597,.T.);
#378=ORIENTED_EDGE('',*,*,#598,.T.);
#379=ORIENTED_EDGE('',*,*,#599,.T.);
#380=ORIENTED_EDGE('',*,*,#600,.F.);
#381=ORIENTED_EDGE('',*,*,#601,.F.);
#382=ORIENTED_EDGE('',*,*,#602,.F.);
#383=ORIENTED_EDGE('',*,*,#603,.F.);
#384=ORIENTED_EDGE('',*,*,#604,.T.);
#385=ORIENTED_EDGE('',*,*,#605,.F.);
#386=ORIENTED_EDGE('',*,*,#606,.T.);
#387=ORIENTED_EDGE('',*,*,#607,.F.);
#388=ORIENTED_EDGE('',*,*,#608,.F.);
#389=ORIENTED_EDGE('',*,*,#609,.T.);
#390=ORIENTED_EDGE('',*,*,#610,.T.);
#391=ORIENTED_EDGE('',*,*,#611,.F.);
#392=ORIENTED_EDGE('',*,*,#612,.F.);
#393=ORIENTED_EDGE('',*,*,#613,.T.);
#394=ORIENTED_EDGE('',*,*,#614,.T.);
#395=ORIENTED_EDGE('',*,*,#615,.F.);
#396=ORIENTED_EDGE('',*,*,#616,.T.);
#397=ORIENTED_EDGE('',*,*,#617,.T.);
#398=ORIENTED_EDGE('',*,*,#618,.F.);
#399=ORIENTED_EDGE('',*,*,#619,.F.);
#400=ORIENTED_EDGE('',*,*,#577,.F.);
#401=ORIENTED_EDGE('',*,*,#620,.T.);
#402=ORIENTED_EDGE('',*,*,#563,.T.);
#403=ORIENTED_EDGE('',*,*,#598,.F.);
#404=ORIENTED_EDGE('',*,*,#621,.F.);
#405=ORIENTED_EDGE('',*,*,#597,.F.);
#406=ORIENTED_EDGE('',*,*,#622,.F.);
#407=ORIENTED_EDGE('',*,*,#612,.T.);
#408=ORIENTED_EDGE('',*,*,#623,.T.);
#409=ORIENTED_EDGE('',*,*,#566,.T.);
#410=ORIENTED_EDGE('',*,*,#624,.F.);
#411=ORIENTED_EDGE('',*,*,#615,.T.);
#412=ORIENTED_EDGE('',*,*,#625,.T.);
#413=ORIENTED_EDGE('',*,*,#626,.F.);
#414=ORIENTED_EDGE('',*,*,#617,.F.);
#415=ORIENTED_EDGE('',*,*,#627,.T.);
#416=ORIENTED_EDGE('',*,*,#568,.F.);
#417=ORIENTED_EDGE('',*,*,#628,.F.);
#418=ORIENTED_EDGE('',*,*,#614,.F.);
#419=ORIENTED_EDGE('',*,*,#629,.T.);
#420=ORIENTED_EDGE('',*,*,#595,.T.);
#421=ORIENTED_EDGE('',*,*,#630,.T.);
#422=ORIENTED_EDGE('',*,*,#585,.T.);
#423=ORIENTED_EDGE('',*,*,#631,.F.);
#424=ORIENTED_EDGE('',*,*,#600,.T.);
#425=ORIENTED_EDGE('',*,*,#632,.F.);
#426=ORIENTED_EDGE('',*,*,#633,.T.);
#427=ORIENTED_EDGE('',*,*,#565,.F.);
#428=ORIENTED_EDGE('',*,*,#634,.F.);
#429=ORIENTED_EDGE('',*,*,#575,.T.);
#430=ORIENTED_EDGE('',*,*,#622,.T.);
#431=ORIENTED_EDGE('',*,*,#596,.T.);
#432=ORIENTED_EDGE('',*,*,#629,.F.);
#433=ORIENTED_EDGE('',*,*,#613,.F.);
#434=ORIENTED_EDGE('',*,*,#576,.T.);
#435=ORIENTED_EDGE('',*,*,#634,.T.);
#436=ORIENTED_EDGE('',*,*,#564,.F.);
#437=ORIENTED_EDGE('',*,*,#620,.F.);
#438=ORIENTED_EDGE('',*,*,#625,.F.);
#439=ORIENTED_EDGE('',*,*,#618,.T.);
#440=ORIENTED_EDGE('',*,*,#626,.T.);
#441=ORIENTED_EDGE('',*,*,#599,.F.);
#442=ORIENTED_EDGE('',*,*,#574,.F.);
#443=ORIENTED_EDGE('',*,*,#619,.T.);
#444=ORIENTED_EDGE('',*,*,#562,.T.);
#445=ORIENTED_EDGE('',*,*,#633,.F.);
#446=ORIENTED_EDGE('',*,*,#594,.T.);
#447=ORIENTED_EDGE('',*,*,#635,.T.);
#448=ORIENTED_EDGE('',*,*,#578,.T.);
#449=ORIENTED_EDGE('',*,*,#630,.F.);
#450=ORIENTED_EDGE('',*,*,#601,.T.);
#451=ORIENTED_EDGE('',*,*,#631,.T.);
#452=ORIENTED_EDGE('',*,*,#584,.T.);
#453=ORIENTED_EDGE('',*,*,#636,.F.);
#454=ORIENTED_EDGE('',*,*,#602,.T.);
#455=ORIENTED_EDGE('',*,*,#636,.T.);
#456=ORIENTED_EDGE('',*,*,#583,.T.);
#457=ORIENTED_EDGE('',*,*,#637,.F.);
#458=ORIENTED_EDGE('',*,*,#603,.T.);
#459=ORIENTED_EDGE('',*,*,#637,.T.);
#460=ORIENTED_EDGE('',*,*,#582,.T.);
#461=ORIENTED_EDGE('',*,*,#638,.F.);
#462=ORIENTED_EDGE('',*,*,#638,.T.);
#463=ORIENTED_EDGE('',*,*,#581,.F.);
#464=ORIENTED_EDGE('',*,*,#639,.F.);
#465=ORIENTED_EDGE('',*,*,#604,.F.);
#466=ORIENTED_EDGE('',*,*,#640,.T.);
#467=ORIENTED_EDGE('',*,*,#579,.F.);
#468=ORIENTED_EDGE('',*,*,#635,.F.);
#469=ORIENTED_EDGE('',*,*,#606,.F.);
#470=ORIENTED_EDGE('',*,*,#605,.T.);
#471=ORIENTED_EDGE('',*,*,#639,.T.);
#472=ORIENTED_EDGE('',*,*,#580,.T.);
#473=ORIENTED_EDGE('',*,*,#640,.F.);
#474=ORIENTED_EDGE('',*,*,#616,.F.);
#475=ORIENTED_EDGE('',*,*,#624,.T.);
#476=ORIENTED_EDGE('',*,*,#569,.T.);
#477=ORIENTED_EDGE('',*,*,#627,.F.);
#478=ORIENTED_EDGE('',*,*,#611,.T.);
#479=ORIENTED_EDGE('',*,*,#628,.T.);
#480=ORIENTED_EDGE('',*,*,#567,.F.);
#481=ORIENTED_EDGE('',*,*,#623,.F.);
#482=ORIENTED_EDGE('',*,*,#570,.T.);
#483=ORIENTED_EDGE('',*,*,#641,.T.);
#484=ORIENTED_EDGE('',*,*,#590,.T.);
#485=ORIENTED_EDGE('',*,*,#642,.F.);
#486=ORIENTED_EDGE('',*,*,#642,.T.);
#487=ORIENTED_EDGE('',*,*,#593,.F.);
#488=ORIENTED_EDGE('',*,*,#643,.F.);
#489=ORIENTED_EDGE('',*,*,#571,.F.);
#490=ORIENTED_EDGE('',*,*,#643,.T.);
#491=ORIENTED_EDGE('',*,*,#592,.F.);
#492=ORIENTED_EDGE('',*,*,#644,.F.);
#493=ORIENTED_EDGE('',*,*,#572,.F.);
#494=ORIENTED_EDGE('',*,*,#573,.T.);
#495=ORIENTED_EDGE('',*,*,#644,.T.);
#496=ORIENTED_EDGE('',*,*,#591,.T.);
#497=ORIENTED_EDGE('',*,*,#641,.F.);
#498=ORIENTED_EDGE('',*,*,#586,.T.);
#499=ORIENTED_EDGE('',*,*,#645,.T.);
#500=ORIENTED_EDGE('',*,*,#607,.T.);
#501=ORIENTED_EDGE('',*,*,#646,.F.);
#502=ORIENTED_EDGE('',*,*,#646,.T.);
#503=ORIENTED_EDGE('',*,*,#610,.F.);
#504=ORIENTED_EDGE('',*,*,#647,.F.);
#505=ORIENTED_EDGE('',*,*,#587,.F.);
#506=ORIENTED_EDGE('',*,*,#647,.T.);
#507=ORIENTED_EDGE('',*,*,#609,.F.);
#508=ORIENTED_EDGE('',*,*,#648,.F.);
#509=ORIENTED_EDGE('',*,*,#588,.F.);
#510=ORIENTED_EDGE('',*,*,#589,.T.);
#511=ORIENTED_EDGE('',*,*,#648,.T.);
#512=ORIENTED_EDGE('',*,*,#608,.T.);
#513=ORIENTED_EDGE('',*,*,#645,.F.);
#514=ORIENTED_EDGE('',*,*,#621,.T.);
#515=ORIENTED_EDGE('',*,*,#632,.T.);
#516=EDGE_CURVE('',#649,#649,#741,.T.);
#517=EDGE_CURVE('',#650,#650,#742,.T.);
#518=EDGE_CURVE('',#651,#651,#743,.T.);
#519=EDGE_CURVE('',#652,#653,#24,.F.);
#520=EDGE_CURVE('',#653,#654,#25,.T.);
#521=EDGE_CURVE('',#654,#655,#26,.T.);
#522=EDGE_CURVE('',#655,#652,#27,.F.);
#523=EDGE_CURVE('',#656,#656,#744,.T.);
#524=EDGE_CURVE('',#657,#657,#745,.T.);
#525=EDGE_CURVE('',#658,#658,#746,.F.);
#526=EDGE_CURVE('',#659,#659,#747,.T.);
#527=EDGE_CURVE('',#660,#660,#748,.T.);
#528=EDGE_CURVE('',#661,#662,#28,.F.);
#529=EDGE_CURVE('',#663,#661,#29,.F.);
#530=EDGE_CURVE('',#664,#663,#30,.T.);
#531=EDGE_CURVE('',#662,#664,#31,.T.);
#532=EDGE_CURVE('',#665,#665,#749,.F.);
#533=EDGE_CURVE('',#666,#666,#750,.F.);
#534=EDGE_CURVE('',#667,#668,#32,.F.);
#535=EDGE_CURVE('',#661,#667,#33,.T.);
#536=EDGE_CURVE('',#662,#668,#34,.T.);
#537=EDGE_CURVE('',#669,#667,#35,.F.);
#538=EDGE_CURVE('',#663,#669,#36,.T.);
#539=EDGE_CURVE('',#670,#669,#37,.T.);
#540=EDGE_CURVE('',#664,#670,#38,.T.);
#541=EDGE_CURVE('',#668,#670,#39,.T.);
#542=EDGE_CURVE('',#671,#672,#40,.F.);
#543=EDGE_CURVE('',#673,#671,#41,.F.);
#544=EDGE_CURVE('',#674,#673,#42,.T.);
#545=EDGE_CURVE('',#672,#674,#43,.T.);
#546=EDGE_CURVE('',#653,#672,#44,.F.);
#547=EDGE_CURVE('',#652,#671,#45,.T.);
#548=EDGE_CURVE('',#675,#676,#46,.T.);
#549=EDGE_CURVE('',#676,#677,#47,.T.);
#550=EDGE_CURVE('',#677,#678,#48,.F.);
#551=EDGE_CURVE('',#678,#675,#49,.F.);
#552=EDGE_CURVE('',#655,#673,#50,.F.);
#553=EDGE_CURVE('',#654,#674,#51,.T.);
#554=EDGE_CURVE('',#679,#680,#52,.T.);
#555=EDGE_CURVE('',#681,#679,#53,.T.);
#556=EDGE_CURVE('',#682,#681,#54,.F.);
#557=EDGE_CURVE('',#680,#682,#55,.F.);
#558=EDGE_CURVE('',#682,#675,#56,.T.);
#559=EDGE_CURVE('',#681,#676,#57,.T.);
#560=EDGE_CURVE('',#680,#678,#58,.T.);
#561=EDGE_CURVE('',#679,#677,#59,.T.);
#562=EDGE_CURVE('',#683,#684,#60,.T.);
#563=EDGE_CURVE('',#685,#683,#61,.T.);
#564=EDGE_CURVE('',#685,#686,#62,.T.);
#565=EDGE_CURVE('',#686,#684,#63,.T.);
#566=EDGE_CURVE('',#687,#688,#64,.T.);
#567=EDGE_CURVE('',#687,#689,#65,.T.);
#568=EDGE_CURVE('',#689,#690,#66,.T.);
#569=EDGE_CURVE('',#688,#690,#67,.T.);
#570=EDGE_CURVE('',#691,#692,#68,.T.);
#571=EDGE_CURVE('',#691,#693,#69,.T.);
#572=EDGE_CURVE('',#693,#694,#70,.T.);
#573=EDGE_CURVE('',#692,#694,#71,.T.);
#574=EDGE_CURVE('',#695,#696,#72,.T.);
#575=EDGE_CURVE('',#697,#696,#73,.T.);
#576=EDGE_CURVE('',#698,#697,#74,.T.);
#577=EDGE_CURVE('',#698,#695,#75,.T.);
#578=EDGE_CURVE('',#699,#700,#751,.T.);
#579=EDGE_CURVE('',#699,#701,#76,.T.);
#580=EDGE_CURVE('',#702,#701,#752,.T.);
#581=EDGE_CURVE('',#702,#703,#77,.T.);
#582=EDGE_CURVE('',#704,#703,#753,.T.);
#583=EDGE_CURVE('',#705,#704,#78,.T.);
#584=EDGE_CURVE('',#706,#705,#754,.T.);
#585=EDGE_CURVE('',#700,#706,#79,.T.);
#586=EDGE_CURVE('',#707,#708,#80,.T.);
#587=EDGE_CURVE('',#707,#709,#81,.T.);
#588=EDGE_CURVE('',#709,#710,#82,.T.);
#589=EDGE_CURVE('',#708,#710,#83,.T.);
#590=EDGE_CURVE('',#711,#712,#84,.T.);
#591=EDGE_CURVE('',#713,#711,#85,.T.);
#592=EDGE_CURVE('',#713,#714,#86,.T.);
#593=EDGE_CURVE('',#714,#712,#87,.T.);
#594=EDGE_CURVE('',#715,#716,#755,.F.);
#595=EDGE_CURVE('',#717,#715,#88,.T.);
#596=EDGE_CURVE('',#718,#717,#89,.T.);
#597=EDGE_CURVE('',#718,#719,#90,.T.);
#598=EDGE_CURVE('',#719,#720,#91,.T.);
#599=EDGE_CURVE('',#720,#721,#92,.T.);
#600=EDGE_CURVE('',#722,#721,#93,.T.);
#601=EDGE_CURVE('',#723,#722,#756,.F.);
#602=EDGE_CURVE('',#724,#723,#94,.T.);
#603=EDGE_CURVE('',#725,#724,#757,.F.);
#604=EDGE_CURVE('',#725,#726,#95,.T.);
#605=EDGE_CURVE('',#727,#726,#758,.F.);
#606=EDGE_CURVE('',#727,#716,#96,.T.);
#607=EDGE_CURVE('',#728,#729,#97,.T.);
#608=EDGE_CURVE('',#730,#728,#98,.T.);
#609=EDGE_CURVE('',#730,#731,#99,.T.);
#610=EDGE_CURVE('',#731,#729,#100,.T.);
#611=EDGE_CURVE('',#732,#733,#101,.T.);
#612=EDGE_CURVE('',#734,#732,#102,.T.);
#613=EDGE_CURVE('',#734,#735,#103,.T.);
#614=EDGE_CURVE('',#735,#733,#104,.T.);
#615=EDGE_CURVE('',#736,#737,#105,.T.);
#616=EDGE_CURVE('',#736,#738,#106,.T.);
#617=EDGE_CURVE('',#738,#739,#107,.T.);
#618=EDGE_CURVE('',#737,#739,#108,.T.);
#619=EDGE_CURVE('',#695,#683,#109,.T.);
#620=EDGE_CURVE('',#698,#685,#110,.T.);
#621=EDGE_CURVE('',#719,#719,#759,.F.);
#622=EDGE_CURVE('',#734,#718,#111,.T.);
#623=EDGE_CURVE('',#732,#687,#112,.T.);
#624=EDGE_CURVE('',#736,#688,#113,.T.);
#625=EDGE_CURVE('',#737,#720,#114,.T.);
#626=EDGE_CURVE('',#739,#721,#115,.T.);
#627=EDGE_CURVE('',#738,#690,#116,.T.);
#628=EDGE_CURVE('',#733,#689,#117,.T.);
#629=EDGE_CURVE('',#735,#717,#118,.T.);
#630=EDGE_CURVE('',#715,#700,#119,.T.);
#631=EDGE_CURVE('',#722,#706,#120,.T.);
#632=EDGE_CURVE('',#740,#740,#760,.T.);
#633=EDGE_CURVE('',#696,#684,#121,.T.);
#634=EDGE_CURVE('',#697,#686,#122,.T.);
#635=EDGE_CURVE('',#716,#699,#123,.T.);
#636=EDGE_CURVE('',#723,#705,#124,.T.);
#637=EDGE_CURVE('',#724,#704,#125,.T.);
#638=EDGE_CURVE('',#725,#703,#126,.T.);
#639=EDGE_CURVE('',#726,#702,#127,.T.);
#640=EDGE_CURVE('',#727,#701,#128,.T.);
#641=EDGE_CURVE('',#692,#711,#129,.T.);
#642=EDGE_CURVE('',#691,#712,#130,.T.);
#643=EDGE_CURVE('',#693,#714,#131,.T.);
#644=EDGE_CURVE('',#694,#713,#132,.T.);
#645=EDGE_CURVE('',#708,#728,#133,.T.);
#646=EDGE_CURVE('',#707,#729,#134,.T.);
#647=EDGE_CURVE('',#709,#731,#135,.T.);
#648=EDGE_CURVE('',#710,#730,#136,.T.);
#649=VERTEX_POINT('',#1355);
#650=VERTEX_POINT('',#1357);
#651=VERTEX_POINT('',#1359);
#652=VERTEX_POINT('',#1361);
#653=VERTEX_POINT('',#1362);
#654=VERTEX_POINT('',#1364);
#655=VERTEX_POINT('',#1366);
#656=VERTEX_POINT('',#1369);
#657=VERTEX_POINT('',#1371);
#658=VERTEX_POINT('',#1374);
#659=VERTEX_POINT('',#1376);
#660=VERTEX_POINT('',#1378);
#661=VERTEX_POINT('',#1380);
#662=VERTEX_POINT('',#1381);
#663=VERTEX_POINT('',#1383);
#664=VERTEX_POINT('',#1385);
#665=VERTEX_POINT('',#1388);
#666=VERTEX_POINT('',#1390);
#667=VERTEX_POINT('',#1393);
#668=VERTEX_POINT('',#1394);
#669=VERTEX_POINT('',#1399);
#670=VERTEX_POINT('',#1403);
#671=VERTEX_POINT('',#1409);
#672=VERTEX_POINT('',#1410);
#673=VERTEX_POINT('',#1412);
#674=VERTEX_POINT('',#1414);
#675=VERTEX_POINT('',#1421);
#676=VERTEX_POINT('',#1422);
#677=VERTEX_POINT('',#1424);
#678=VERTEX_POINT('',#1426);
#679=VERTEX_POINT('',#1433);
#680=VERTEX_POINT('',#1434);
#681=VERTEX_POINT('',#1436);
#682=VERTEX_POINT('',#1438);
#683=VERTEX_POINT('',#1456);
#684=VERTEX_POINT('',#1457);
#685=VERTEX_POINT('',#1459);
#686=VERTEX_POINT('',#1461);
#687=VERTEX_POINT('',#1464);
#688=VERTEX_POINT('',#1465);
#689=VERTEX_POINT('',#1467);
#690=VERTEX_POINT('',#1469);
#691=VERTEX_POINT('',#1473);
#692=VERTEX_POINT('',#1474);
#693=VERTEX_POINT('',#1476);
#694=VERTEX_POINT('',#1478);
#695=VERTEX_POINT('',#1481);
#696=VERTEX_POINT('',#1482);
#697=VERTEX_POINT('',#1484);
#698=VERTEX_POINT('',#1486);
#699=VERTEX_POINT('',#1489);
#700=VERTEX_POINT('',#1490);
#701=VERTEX_POINT('',#1492);
#702=VERTEX_POINT('',#1494);
#703=VERTEX_POINT('',#1496);
#704=VERTEX_POINT('',#1498);
#705=VERTEX_POINT('',#1500);
#706=VERTEX_POINT('',#1502);
#707=VERTEX_POINT('',#1505);
#708=VERTEX_POINT('',#1506);
#709=VERTEX_POINT('',#1508);
#710=VERTEX_POINT('',#1510);
#711=VERTEX_POINT('',#1514);
#712=VERTEX_POINT('',#1515);
#713=VERTEX_POINT('',#1517);
#714=VERTEX_POINT('',#1519);
#715=VERTEX_POINT('',#1522);
#716=VERTEX_POINT('',#1523);
#717=VERTEX_POINT('',#1525);
#718=VERTEX_POINT('',#1527);
#719=VERTEX_POINT('',#1529);
#720=VERTEX_POINT('',#1531);
#721=VERTEX_POINT('',#1533);
#722=VERTEX_POINT('',#1535);
#723=VERTEX_POINT('',#1537);
#724=VERTEX_POINT('',#1539);
#725=VERTEX_POINT('',#1541);
#726=VERTEX_POINT('',#1543);
#727=VERTEX_POINT('',#1545);
#728=VERTEX_POINT('',#1548);
#729=VERTEX_POINT('',#1549);
#730=VERTEX_POINT('',#1551);
#731=VERTEX_POINT('',#1553);
#732=VERTEX_POINT('',#1557);
#733=VERTEX_POINT('',#1558);
#734=VERTEX_POINT('',#1560);
#735=VERTEX_POINT('',#1562);
#736=VERTEX_POINT('',#1566);
#737=VERTEX_POINT('',#1567);
#738=VERTEX_POINT('',#1569);
#739=VERTEX_POINT('',#1571);
#740=VERTEX_POINT('',#1591);
#741=CIRCLE('',#1028,0.05745);
#742=CIRCLE('',#1029,0.0023);
#743=CIRCLE('',#1030,0.0023);
#744=CIRCLE('',#1031,0.0023);
#745=CIRCLE('',#1032,0.0023);
#746=CIRCLE('',#1034,0.05745);
#747=CIRCLE('',#1035,0.0023);
#748=CIRCLE('',#1036,0.0023);
#749=CIRCLE('',#1037,0.0023);
#750=CIRCLE('',#1038,0.0023);
#751=CIRCLE('',#1060,0.002);
#752=CIRCLE('',#1061,0.002);
#753=CIRCLE('',#1062,0.002);
#754=CIRCLE('',#1063,0.002);
#755=CIRCLE('',#1065,0.002);
#756=CIRCLE('',#1066,0.002);
#757=CIRCLE('',#1067,0.002);
#758=CIRCLE('',#1068,0.002);
#759=CIRCLE('',#1073,0.004);
#760=CIRCLE('',#1076,0.004);
#761=EDGE_LOOP('',(#250));
#762=EDGE_LOOP('',(#251));
#763=EDGE_LOOP('',(#252));
#764=EDGE_LOOP('',(#253,#254,#255,#256));
#765=EDGE_LOOP('',(#257));
#766=EDGE_LOOP('',(#258));
#767=EDGE_LOOP('',(#259));
#768=EDGE_LOOP('',(#260));
#769=EDGE_LOOP('',(#261));
#770=EDGE_LOOP('',(#262,#263,#264,#265));
#771=EDGE_LOOP('',(#266));
#772=EDGE_LOOP('',(#267));
#773=EDGE_LOOP('',(#268,#269,#270,#271));
#774=EDGE_LOOP('',(#272,#273,#274,#275));
#775=EDGE_LOOP('',(#276,#277,#278,#279));
#776=EDGE_LOOP('',(#280,#281,#282,#283));
#777=EDGE_LOOP('',(#284,#285,#286,#287));
#778=EDGE_LOOP('',(#288,#289,#290,#291));
#779=EDGE_LOOP('',(#292,#293,#294,#295));
#780=EDGE_LOOP('',(#296,#297,#298,#299));
#781=EDGE_LOOP('',(#300,#301,#302,#303));
#782=EDGE_LOOP('',(#304,#305,#306,#307));
#783=EDGE_LOOP('',(#308,#309,#310,#311));
#784=EDGE_LOOP('',(#312,#313,#314,#315));
#785=EDGE_LOOP('',(#316));
#786=EDGE_LOOP('',(#317));
#787=EDGE_LOOP('',(#318));
#788=EDGE_LOOP('',(#319));
#789=EDGE_LOOP('',(#320));
#790=EDGE_LOOP('',(#321));
#791=EDGE_LOOP('',(#322));
#792=EDGE_LOOP('',(#323));
#793=EDGE_LOOP('',(#324));
#794=EDGE_LOOP('',(#325));
#795=EDGE_LOOP('',(#326,#327,#328,#329));
#796=EDGE_LOOP('',(#330,#331,#332,#333));
#797=EDGE_LOOP('',(#334,#335,#336,#337));
#798=EDGE_LOOP('',(#338,#339,#340,#341));
#799=EDGE_LOOP('',(#342,#343,#344,#345));
#800=EDGE_LOOP('',(#346,#347,#348,#349));
#801=EDGE_LOOP('',(#350,#351,#352,#353));
#802=EDGE_LOOP('',(#354,#355,#356,#357));
#803=EDGE_LOOP('',(#358,#359,#360,#361,#362,#363,#364,#365));
#804=EDGE_LOOP('',(#366,#367,#368,#369));
#805=EDGE_LOOP('',(#370,#371,#372,#373));
#806=EDGE_LOOP('',(#374,#375,#376,#377,#378,#379,#380,#381,#382,#383,#384,
#385,#386));
#807=EDGE_LOOP('',(#387,#388,#389,#390));
#808=EDGE_LOOP('',(#391,#392,#393,#394));
#809=EDGE_LOOP('',(#395,#396,#397,#398));
#810=EDGE_LOOP('',(#399,#400,#401,#402));
#811=EDGE_LOOP('',(#403,#404,#405,#406,#407,#408,#409,#410,#411,#412));
#812=EDGE_LOOP('',(#413,#414,#415,#416,#417,#418,#419,#420,#421,#422,#423,
#424));
#813=EDGE_LOOP('',(#425));
#814=EDGE_LOOP('',(#426,#427,#428,#429));
#815=EDGE_LOOP('',(#430,#431,#432,#433));
#816=EDGE_LOOP('',(#434,#435,#436,#437));
#817=EDGE_LOOP('',(#438,#439,#440,#441));
#818=EDGE_LOOP('',(#442,#443,#444,#445));
#819=EDGE_LOOP('',(#446,#447,#448,#449));
#820=EDGE_LOOP('',(#450,#451,#452,#453));
#821=EDGE_LOOP('',(#454,#455,#456,#457));
#822=EDGE_LOOP('',(#458,#459,#460,#461));
#823=EDGE_LOOP('',(#462,#463,#464,#465));
#824=EDGE_LOOP('',(#466,#467,#468,#469));
#825=EDGE_LOOP('',(#470,#471,#472,#473));
#826=EDGE_LOOP('',(#474,#475,#476,#477));
#827=EDGE_LOOP('',(#478,#479,#480,#481));
#828=EDGE_LOOP('',(#482,#483,#484,#485));
#829=EDGE_LOOP('',(#486,#487,#488,#489));
#830=EDGE_LOOP('',(#490,#491,#492,#493));
#831=EDGE_LOOP('',(#494,#495,#496,#497));
#832=EDGE_LOOP('',(#498,#499,#500,#501));
#833=EDGE_LOOP('',(#502,#503,#504,#505));
#834=EDGE_LOOP('',(#506,#507,#508,#509));
#835=EDGE_LOOP('',(#510,#511,#512,#513));
#836=EDGE_LOOP('',(#514));
#837=EDGE_LOOP('',(#515));
#838=FACE_BOUND('',#761,.T.);
#839=FACE_BOUND('',#762,.T.);
#840=FACE_BOUND('',#763,.T.);
#841=FACE_BOUND('',#764,.T.);
#842=FACE_BOUND('',#765,.T.);
#843=FACE_BOUND('',#766,.T.);
#844=FACE_BOUND('',#767,.T.);
#845=FACE_BOUND('',#768,.T.);
#846=FACE_BOUND('',#769,.T.);
#847=FACE_BOUND('',#770,.T.);
#848=FACE_BOUND('',#771,.T.);
#849=FACE_BOUND('',#772,.T.);
#850=FACE_BOUND('',#773,.T.);
#851=FACE_BOUND('',#774,.T.);
#852=FACE_BOUND('',#775,.T.);
#853=FACE_BOUND('',#776,.T.);
#854=FACE_BOUND('',#777,.T.);
#855=FACE_BOUND('',#778,.T.);
#856=FACE_BOUND('',#779,.T.);
#857=FACE_BOUND('',#780,.T.);
#858=FACE_BOUND('',#781,.T.);
#859=FACE_BOUND('',#782,.T.);
#860=FACE_BOUND('',#783,.T.);
#861=FACE_BOUND('',#784,.T.);
#862=FACE_BOUND('',#785,.T.);
#863=FACE_BOUND('',#786,.T.);
#864=FACE_BOUND('',#787,.T.);
#865=FACE_BOUND('',#788,.T.);
#866=FACE_BOUND('',#789,.T.);
#867=FACE_BOUND('',#790,.T.);
#868=FACE_BOUND('',#791,.T.);
#869=FACE_BOUND('',#792,.T.);
#870=FACE_BOUND('',#793,.T.);
#871=FACE_BOUND('',#794,.T.);
#872=FACE_BOUND('',#795,.T.);
#873=FACE_BOUND('',#796,.T.);
#874=FACE_BOUND('',#797,.T.);
#875=FACE_BOUND('',#798,.T.);
#876=FACE_BOUND('',#799,.T.);
#877=FACE_BOUND('',#800,.T.);
#878=FACE_BOUND('',#801,.T.);
#879=FACE_BOUND('',#802,.T.);
#880=FACE_BOUND('',#803,.T.);
#881=FACE_BOUND('',#804,.T.);
#882=FACE_BOUND('',#805,.T.);
#883=FACE_BOUND('',#806,.T.);
#884=FACE_BOUND('',#807,.T.);
#885=FACE_BOUND('',#808,.T.);
#886=FACE_BOUND('',#809,.T.);
#887=FACE_BOUND('',#810,.T.);
#888=FACE_BOUND('',#811,.T.);
#889=FACE_BOUND('',#812,.T.);
#890=FACE_BOUND('',#813,.T.);
#891=FACE_BOUND('',#814,.T.);
#892=FACE_BOUND('',#815,.T.);
#893=FACE_BOUND('',#816,.T.);
#894=FACE_BOUND('',#817,.T.);
#895=FACE_BOUND('',#818,.T.);
#896=FACE_BOUND('',#819,.T.);
#897=FACE_BOUND('',#820,.T.);
#898=FACE_BOUND('',#821,.T.);
#899=FACE_BOUND('',#822,.T.);
#900=FACE_BOUND('',#823,.T.);
#901=FACE_BOUND('',#824,.T.);
#902=FACE_BOUND('',#825,.T.);
#903=FACE_BOUND('',#826,.T.);
#904=FACE_BOUND('',#827,.T.);
#905=FACE_BOUND('',#828,.T.);
#906=FACE_BOUND('',#829,.T.);
#907=FACE_BOUND('',#830,.T.);
#908=FACE_BOUND('',#831,.T.);
#909=FACE_BOUND('',#832,.T.);
#910=FACE_BOUND('',#833,.T.);
#911=FACE_BOUND('',#834,.T.);
#912=FACE_BOUND('',#835,.T.);
#913=FACE_BOUND('',#836,.T.);
#914=FACE_BOUND('',#837,.T.);
#915=PLANE('',#1027);
#916=PLANE('',#1033);
#917=PLANE('',#1039);
#918=PLANE('',#1040);
#919=PLANE('',#1041);
#920=PLANE('',#1042);
#921=PLANE('',#1043);
#922=PLANE('',#1044);
#923=PLANE('',#1045);
#924=PLANE('',#1046);
#925=PLANE('',#1047);
#926=PLANE('',#1053);
#927=PLANE('',#1054);
#928=PLANE('',#1055);
#929=PLANE('',#1056);
#930=PLANE('',#1058);
#931=PLANE('',#1059);
#932=PLANE('',#1064);
#933=PLANE('',#1069);
#934=PLANE('',#1070);
#935=PLANE('',#1071);
#936=PLANE('',#1072);
#937=PLANE('',#1074);
#938=PLANE('',#1075);
#939=PLANE('',#1077);
#940=PLANE('',#1078);
#941=PLANE('',#1081);
#942=PLANE('',#1083);
#943=PLANE('',#1084);
#944=PLANE('',#1086);
#945=PLANE('',#1087);
#946=PLANE('',#1088);
#947=PLANE('',#1089);
#948=PLANE('',#1090);
#949=PLANE('',#1091);
#950=PLANE('',#1092);
#951=PLANE('',#1093);
#952=PLANE('',#1094);
#953=PLANE('',#1095);
#954=ADVANCED_FACE('',(#838,#839,#840,#841,#842,#843),#915,.T.);
#955=ADVANCED_FACE('',(#844,#845,#846,#847,#848,#849),#916,.F.);
#956=ADVANCED_FACE('',(#850),#917,.F.);
#957=ADVANCED_FACE('',(#851),#918,.F.);
#958=ADVANCED_FACE('',(#852),#919,.T.);
#959=ADVANCED_FACE('',(#853),#920,.T.);
#960=ADVANCED_FACE('',(#854,#855),#921,.T.);
#961=ADVANCED_FACE('',(#856),#922,.T.);
#962=ADVANCED_FACE('',(#857,#858),#923,.T.);
#963=ADVANCED_FACE('',(#859),#924,.F.);
#964=ADVANCED_FACE('',(#860,#861),#925,.F.);
#965=ADVANCED_FACE('',(#862,#863),#14,.F.);
#966=ADVANCED_FACE('',(#864,#865),#15,.F.);
#967=ADVANCED_FACE('',(#866,#867),#16,.F.);
#968=ADVANCED_FACE('',(#868,#869),#17,.F.);
#969=ADVANCED_FACE('',(#870,#871),#18,.F.);
#970=ADVANCED_FACE('',(#872),#926,.F.);
#971=ADVANCED_FACE('',(#873),#927,.F.);
#972=ADVANCED_FACE('',(#874),#928,.T.);
#973=ADVANCED_FACE('',(#875),#929,.T.);
#974=ADVANCED_FACE('',(#876,#877),#930,.T.);
#975=ADVANCED_FACE('',(#878,#879,#880,#881),#931,.F.);
#976=ADVANCED_FACE('',(#882,#883,#884),#932,.F.);
#977=ADVANCED_FACE('',(#885),#933,.T.);
#978=ADVANCED_FACE('',(#886),#934,.T.);
#979=ADVANCED_FACE('',(#887),#935,.T.);
#980=ADVANCED_FACE('',(#888),#936,.F.);
#981=ADVANCED_FACE('',(#889),#937,.T.);
#982=ADVANCED_FACE('',(#890,#891),#938,.F.);
#983=ADVANCED_FACE('',(#892,#893),#939,.F.);
#984=ADVANCED_FACE('',(#894,#895),#940,.T.);
#985=ADVANCED_FACE('',(#896),#19,.F.);
#986=ADVANCED_FACE('',(#897),#20,.F.);
#987=ADVANCED_FACE('',(#898),#941,.F.);
#988=ADVANCED_FACE('',(#899),#21,.F.);
#989=ADVANCED_FACE('',(#900),#942,.T.);
#990=ADVANCED_FACE('',(#901),#943,.T.);
#991=ADVANCED_FACE('',(#902),#22,.F.);
#992=ADVANCED_FACE('',(#903),#944,.F.);
#993=ADVANCED_FACE('',(#904),#945,.T.);
#994=ADVANCED_FACE('',(#905),#946,.T.);
#995=ADVANCED_FACE('',(#906),#947,.F.);
#996=ADVANCED_FACE('',(#907),#948,.F.);
#997=ADVANCED_FACE('',(#908),#949,.T.);
#998=ADVANCED_FACE('',(#909),#950,.T.);
#999=ADVANCED_FACE('',(#910),#951,.F.);
#1000=ADVANCED_FACE('',(#911),#952,.F.);
#1001=ADVANCED_FACE('',(#912),#953,.T.);
#1002=ADVANCED_FACE('',(#913,#914),#23,.F.);
#1003=CLOSED_SHELL('',(#954,#955,#956,#957,#958,#959,#960,#961,#962,#963,
#964,#965,#966,#967,#968,#969,#970,#971,#972,#973));
#1004=CLOSED_SHELL('',(#974,#975,#976,#977,#978,#979,#980,#981,#982,#983,
#984,#985,#986,#987,#988,#989,#990,#991,#992,#993,#994,#995,#996,#997,#998,
#999,#1000,#1001,#1002));
#1005=STYLED_ITEM('',(#1007),#1020);
#1006=STYLED_ITEM('',(#1008),#1021);
#1007=PRESENTATION_STYLE_ASSIGNMENT((#1009));
#1008=PRESENTATION_STYLE_ASSIGNMENT((#1010));
#1009=SURFACE_STYLE_USAGE(.BOTH.,#1011);
#1010=SURFACE_STYLE_USAGE(.BOTH.,#1012);
#1011=SURFACE_SIDE_STYLE('',(#1013));
#1012=SURFACE_SIDE_STYLE('',(#1014));
#1013=SURFACE_STYLE_FILL_AREA(#1015);
#1014=SURFACE_STYLE_FILL_AREA(#1016);
#1015=FILL_AREA_STYLE('',(#1017));
#1016=FILL_AREA_STYLE('',(#1018));
#1017=FILL_AREA_STYLE_COLOUR('',#1019);
#1018=FILL_AREA_STYLE_COLOUR('',#1019);
#1019=COLOUR_RGB('',0.615686274509804,0.811764705882353,0.929411764705882);
#1020=MANIFOLD_SOLID_BREP('Part 1',#1003);
#1021=MANIFOLD_SOLID_BREP('Part 2',#1004);
#1022=SHAPE_DEFINITION_REPRESENTATION(#1640,#1024);
#1023=SHAPE_DEFINITION_REPRESENTATION(#1641,#1025);
#1024=SHAPE_REPRESENTATION('Part 1',(#1026),#1630);
#1025=SHAPE_REPRESENTATION('Part 2',(#1057),#1631);
#1026=AXIS2_PLACEMENT_3D('',#1352,#1097,#1098);
#1027=AXIS2_PLACEMENT_3D('',#1353,#1099,#1100);
#1028=AXIS2_PLACEMENT_3D('',#1354,#1101,#1102);
#1029=AXIS2_PLACEMENT_3D('',#1356,#1103,#1104);
#1030=AXIS2_PLACEMENT_3D('',#1358,#1105,#1106);
#1031=AXIS2_PLACEMENT_3D('',#1368,#1111,#1112);
#1032=AXIS2_PLACEMENT_3D('',#1370,#1113,#1114);
#1033=AXIS2_PLACEMENT_3D('',#1372,#1115,#1116);
#1034=AXIS2_PLACEMENT_3D('',#1373,#1117,#1118);
#1035=AXIS2_PLACEMENT_3D('',#1375,#1119,#1120);
#1036=AXIS2_PLACEMENT_3D('',#1377,#1121,#1122);
#1037=AXIS2_PLACEMENT_3D('',#1387,#1127,#1128);
#1038=AXIS2_PLACEMENT_3D('',#1389,#1129,#1130);
#1039=AXIS2_PLACEMENT_3D('',#1391,#1131,#1132);
#1040=AXIS2_PLACEMENT_3D('',#1397,#1136,#1137);
#1041=AXIS2_PLACEMENT_3D('',#1401,#1140,#1141);
#1042=AXIS2_PLACEMENT_3D('',#1405,#1144,#1145);
#1043=AXIS2_PLACEMENT_3D('',#1407,#1147,#1148);
#1044=AXIS2_PLACEMENT_3D('',#1416,#1153,#1154);
#1045=AXIS2_PLACEMENT_3D('',#1419,#1157,#1158);
#1046=AXIS2_PLACEMENT_3D('',#1429,#1164,#1165);
#1047=AXIS2_PLACEMENT_3D('',#1431,#1167,#1168);
#1048=AXIS2_PLACEMENT_3D('',#1440,#1173,#1174);
#1049=AXIS2_PLACEMENT_3D('',#1441,#1175,#1176);
#1050=AXIS2_PLACEMENT_3D('',#1442,#1177,#1178);
#1051=AXIS2_PLACEMENT_3D('',#1443,#1179,#1180);
#1052=AXIS2_PLACEMENT_3D('',#1444,#1181,#1182);
#1053=AXIS2_PLACEMENT_3D('',#1445,#1183,#1184);
#1054=AXIS2_PLACEMENT_3D('',#1448,#1187,#1188);
#1055=AXIS2_PLACEMENT_3D('',#1450,#1190,#1191);
#1056=AXIS2_PLACEMENT_3D('',#1452,#1193,#1194);
#1057=AXIS2_PLACEMENT_3D('',#1453,#1195,#1196);
#1058=AXIS2_PLACEMENT_3D('',#1454,#1197,#1198);
#1059=AXIS2_PLACEMENT_3D('',#1471,#1207,#1208);
#1060=AXIS2_PLACEMENT_3D('',#1488,#1217,#1218);
#1061=AXIS2_PLACEMENT_3D('',#1493,#1220,#1221);
#1062=AXIS2_PLACEMENT_3D('',#1497,#1223,#1224);
#1063=AXIS2_PLACEMENT_3D('',#1501,#1226,#1227);
#1064=AXIS2_PLACEMENT_3D('',#1512,#1233,#1234);
#1065=AXIS2_PLACEMENT_3D('',#1521,#1239,#1240);
#1066=AXIS2_PLACEMENT_3D('',#1536,#1247,#1248);
#1067=AXIS2_PLACEMENT_3D('',#1540,#1250,#1251);
#1068=AXIS2_PLACEMENT_3D('',#1544,#1253,#1254);
#1069=AXIS2_PLACEMENT_3D('',#1555,#1260,#1261);
#1070=AXIS2_PLACEMENT_3D('',#1564,#1266,#1267);
#1071=AXIS2_PLACEMENT_3D('',#1573,#1272,#1273);
#1072=AXIS2_PLACEMENT_3D('',#1576,#1276,#1277);
#1073=AXIS2_PLACEMENT_3D('',#1577,#1278,#1279);
#1074=AXIS2_PLACEMENT_3D('',#1582,#1284,#1285);
#1075=AXIS2_PLACEMENT_3D('',#1589,#1292,#1293);
#1076=AXIS2_PLACEMENT_3D('',#1590,#1294,#1295);
#1077=AXIS2_PLACEMENT_3D('',#1594,#1298,#1299);
#1078=AXIS2_PLACEMENT_3D('',#1595,#1300,#1301);
#1079=AXIS2_PLACEMENT_3D('',#1596,#1302,#1303);
#1080=AXIS2_PLACEMENT_3D('',#1598,#1305,#1306);
#1081=AXIS2_PLACEMENT_3D('',#1600,#1308,#1309);
#1082=AXIS2_PLACEMENT_3D('',#1602,#1311,#1312);
#1083=AXIS2_PLACEMENT_3D('',#1604,#1314,#1315);
#1084=AXIS2_PLACEMENT_3D('',#1606,#1317,#1318);
#1085=AXIS2_PLACEMENT_3D('',#1608,#1320,#1321);
#1086=AXIS2_PLACEMENT_3D('',#1609,#1322,#1323);
#1087=AXIS2_PLACEMENT_3D('',#1610,#1324,#1325);
#1088=AXIS2_PLACEMENT_3D('',#1611,#1326,#1327);
#1089=AXIS2_PLACEMENT_3D('',#1614,#1330,#1331);
#1090=AXIS2_PLACEMENT_3D('',#1616,#1333,#1334);
#1091=AXIS2_PLACEMENT_3D('',#1618,#1336,#1337);
#1092=AXIS2_PLACEMENT_3D('',#1619,#1338,#1339);
#1093=AXIS2_PLACEMENT_3D('',#1622,#1342,#1343);
#1094=AXIS2_PLACEMENT_3D('',#1624,#1345,#1346);
#1095=AXIS2_PLACEMENT_3D('',#1626,#1348,#1349);
#1096=AXIS2_PLACEMENT_3D('',#1627,#1350,#1351);
#1097=DIRECTION('',(0.,0.,1.));
#1098=DIRECTION('',(1.,0.,0.));
#1099=DIRECTION('',(0.,0.,1.));
#1100=DIRECTION('',(1.,0.,0.));
#1101=DIRECTION('',(0.,0.,1.));
#1102=DIRECTION('',(1.,0.,0.));
#1103=DIRECTION('',(0.,0.,-1.));
#1104=DIRECTION('',(1.,0.,0.));
#1105=DIRECTION('',(0.,0.,1.));
#1106=DIRECTION('',(1.,0.,0.));
#1107=DIRECTION('',(-1.,-2.1350442781253E-16,0.));
#1108=DIRECTION('',(0.,1.,0.));
#1109=DIRECTION('',(-1.,-2.1350442781253E-16,0.));
#1110=DIRECTION('',(0.,1.,0.));
#1111=DIRECTION('',(0.,0.,1.));
#1112=DIRECTION('',(1.,0.,0.));
#1113=DIRECTION('',(0.,0.,-1.));
#1114=DIRECTION('',(1.,0.,0.));
#1115=DIRECTION('',(0.,0.,1.));
#1116=DIRECTION('',(1.,0.,0.));
#1117=DIRECTION('',(0.,0.,1.));
#1118=DIRECTION('',(1.,0.,0.));
#1119=DIRECTION('',(0.,0.,1.));
#1120=DIRECTION('',(1.,0.,0.));
#1121=DIRECTION('',(0.,0.,1.));
#1122=DIRECTION('',(1.,0.,0.));
#1123=DIRECTION('',(-1.,-2.1350442781253E-16,0.));
#1124=DIRECTION('',(0.,1.,0.));
#1125=DIRECTION('',(-1.,-2.1350442781253E-16,0.));
#1126=DIRECTION('',(0.,1.,0.));
#1127=DIRECTION('',(0.,0.,1.));
#1128=DIRECTION('',(1.,0.,0.));
#1129=DIRECTION('',(0.,0.,1.));
#1130=DIRECTION('',(1.,0.,0.));
#1131=DIRECTION('',(-1.90964165634405E-16,0.894427190999916,0.447213595499958));
#1132=DIRECTION('',(0.,-0.447213595499958,0.894427190999916));
#1133=DIRECTION('',(-1.,-1.7347234759768E-16,0.));
#1134=DIRECTION('',(-0.408248290463863,-0.408248290463863,0.816496580927726));
#1135=DIRECTION('',(0.408248290463864,-0.408248290463862,0.816496580927726));
#1136=DIRECTION('',(0.894427190999916,0.,0.447213595499958));
#1137=DIRECTION('',(0.447213595499958,0.,-0.894427190999916));
#1138=DIRECTION('',(8.67361737988404E-17,1.,0.));
#1139=DIRECTION('',(-0.408248290463863,0.408248290463863,0.816496580927726));
#1140=DIRECTION('',(-1.90964165634405E-16,0.894427190999916,-0.447213595499957));
#1141=DIRECTION('',(0.,0.447213595499957,0.894427190999917));
#1142=DIRECTION('',(-1.,-1.7347234759768E-16,0.));
#1143=DIRECTION('',(0.408248290463863,0.408248290463862,0.816496580927726));
#1144=DIRECTION('',(0.894427190999916,0.,-0.447213595499959));
#1145=DIRECTION('',(-0.447213595499959,0.,-0.894427190999916));
#1146=DIRECTION('',(8.67361737988404E-17,1.,0.));
#1147=DIRECTION('',(0.,0.,1.));
#1148=DIRECTION('',(1.,0.,0.));
#1149=DIRECTION('',(-1.,-2.1350442781253E-16,0.));
#1150=DIRECTION('',(0.,1.,0.));
#1151=DIRECTION('',(-1.,-2.1350442781253E-16,0.));
#1152=DIRECTION('',(0.,1.,0.));
#1153=DIRECTION('',(-1.90964165634405E-16,0.894427190999916,0.447213595499958));
#1154=DIRECTION('',(0.,-0.447213595499958,0.894427190999916));
#1155=DIRECTION('',(-0.408248290463864,0.408248290463863,-0.816496580927726));
#1156=DIRECTION('',(-0.408248290463863,-0.408248290463863,0.816496580927726));
#1157=DIRECTION('',(0.894427190999916,0.,0.447213595499958));
#1158=DIRECTION('',(0.447213595499958,0.,-0.894427190999916));
#1159=DIRECTION('',(0.,-1.,0.));
#1160=DIRECTION('',(-0.447213595499958,-1.73472347597681E-16,0.894427190999916));
#1161=DIRECTION('',(0.,-1.,0.));
#1162=DIRECTION('',(-0.447213595499958,-1.73472347597681E-16,0.894427190999916));
#1163=DIRECTION('',(0.408248290463863,-0.408248290463862,-0.816496580927727));
#1164=DIRECTION('',(-1.90964165634405E-16,0.894427190999916,-0.447213595499957));
#1165=DIRECTION('',(0.,0.447213595499957,0.894427190999917));
#1166=DIRECTION('',(0.408248290463864,0.408248290463862,0.816496580927726));
#1167=DIRECTION('',(0.894427190999916,0.,-0.447213595499959));
#1168=DIRECTION('',(-0.447213595499959,0.,-0.894427190999916));
#1169=DIRECTION('',(0.,1.,0.));
#1170=DIRECTION('',(0.447213595499959,1.73472347597681E-16,0.894427190999916));
#1171=DIRECTION('',(0.,1.,0.));
#1172=DIRECTION('',(0.447213595499959,1.73472347597681E-16,0.894427190999916));
#1173=DIRECTION('',(0.,0.,1.));
#1174=DIRECTION('',(1.,0.,0.));
#1175=DIRECTION('',(0.,0.,1.));
#1176=DIRECTION('',(1.,0.,0.));
#1177=DIRECTION('',(0.,0.,1.));
#1178=DIRECTION('',(1.,0.,0.));
#1179=DIRECTION('',(0.,0.,1.));
#1180=DIRECTION('',(1.,0.,0.));
#1181=DIRECTION('',(0.,0.,1.));
#1182=DIRECTION('',(1.,0.,0.));
#1183=DIRECTION('',(-7.31179329776108E-17,0.,1.));
#1184=DIRECTION('',(1.,0.,7.31179329776108E-17));
#1185=DIRECTION('',(-1.,1.99412544484393E-17,-7.31179329776108E-17));
#1186=DIRECTION('',(-1.,1.99412544484393E-17,-1.99412544484393E-17));
#1187=DIRECTION('',(-6.42682148895834E-18,-1.,1.97161391466923E-16));
#1188=DIRECTION('',(0.,-1.97161391466923E-16,-1.));
#1189=DIRECTION('',(-1.,6.42682148895834E-18,-2.57072859558333E-17));
#1190=DIRECTION('',(-2.57072859558333E-17,0.,1.));
#1191=DIRECTION('',(1.,0.,2.57072859558333E-17));
#1192=DIRECTION('',(-1.,6.42682148895834E-18,-2.57072859558333E-17));
#1193=DIRECTION('',(-1.99412544484393E-17,-1.,2.03918607946663E-16));
#1194=DIRECTION('',(0.,-2.03918607946663E-16,-1.));
#1195=DIRECTION('',(0.,0.,1.));
#1196=DIRECTION('',(1.,0.,0.));
#1197=DIRECTION('',(-2.1350442781253E-16,1.,0.));
#1198=DIRECTION('',(-1.,-2.1350442781253E-16,0.));
#1199=DIRECTION('',(-1.,-2.1350442781253E-16,0.));
#1200=DIRECTION('',(0.,0.,1.));
#1201=DIRECTION('',(-1.,-2.1350442781253E-16,0.));
#1202=DIRECTION('',(0.,0.,1.));
#1203=DIRECTION('',(0.,0.,1.));
#1204=DIRECTION('',(1.,2.1350442781253E-16,-3.46944695195362E-16));
#1205=DIRECTION('',(0.,0.,1.));
#1206=DIRECTION('',(1.,2.1350442781253E-16,-1.73472347597681E-16));
#1207=DIRECTION('',(-2.1350442781253E-16,1.,0.));
#1208=DIRECTION('',(-1.,-2.1350442781253E-16,0.));
#1209=DIRECTION('',(1.,2.1350442781253E-16,0.));
#1210=DIRECTION('',(0.,0.,1.));
#1211=DIRECTION('',(1.,2.1350442781253E-16,0.));
#1212=DIRECTION('',(0.,0.,1.));
#1213=DIRECTION('',(-1.,-2.1350442781253E-16,0.));
#1214=DIRECTION('',(0.,0.,1.));
#1215=DIRECTION('',(-1.,-2.1350442781253E-16,0.));
#1216=DIRECTION('',(0.,0.,1.));
#1217=DIRECTION('',(2.1350442781253E-16,-1.,0.));
#1218=DIRECTION('',(1.,2.1350442781253E-16,0.));
#1219=DIRECTION('',(-1.,-2.1350442781253E-16,0.));
#1220=DIRECTION('',(2.1350442781253E-16,-1.,0.));
#1221=DIRECTION('',(1.,2.1350442781253E-16,0.));
#1222=DIRECTION('',(0.,0.,1.));
#1223=DIRECTION('',(2.1350442781253E-16,-1.,0.));
#1224=DIRECTION('',(1.,2.1350442781253E-16,0.));
#1225=DIRECTION('',(-1.,-2.1350442781253E-16,0.));
#1226=DIRECTION('',(2.1350442781253E-16,-1.,0.));
#1227=DIRECTION('',(1.,2.1350442781253E-16,0.));
#1228=DIRECTION('',(0.,0.,1.));
#1229=DIRECTION('',(1.,2.1350442781253E-16,0.));
#1230=DIRECTION('',(0.,0.,1.));
#1231=DIRECTION('',(1.,2.1350442781253E-16,0.));
#1232=DIRECTION('',(0.,0.,1.));
#1233=DIRECTION('',(0.,-1.,0.));
#1234=DIRECTION('',(0.,0.,-1.));
#1235=DIRECTION('',(-1.,0.,0.));
#1236=DIRECTION('',(0.,0.,-1.));
#1237=DIRECTION('',(-1.,0.,0.));
#1238=DIRECTION('',(0.,0.,-1.));
#1239=DIRECTION('',(0.,-1.,0.));
#1240=DIRECTION('',(0.,0.,-1.));
#1241=DIRECTION('',(0.,0.,1.));
#1242=DIRECTION('',(1.,0.,0.));
#1243=DIRECTION('',(0.,0.,1.));
#1244=DIRECTION('',(0.,0.,1.));
#1245=DIRECTION('',(1.,0.,0.));
#1246=DIRECTION('',(0.,0.,1.));
#1247=DIRECTION('',(0.,-1.,0.));
#1248=DIRECTION('',(0.,0.,-1.));
#1249=DIRECTION('',(1.,0.,0.));
#1250=DIRECTION('',(0.,-1.,0.));
#1251=DIRECTION('',(0.,0.,-1.));
#1252=DIRECTION('',(0.,0.,-1.));
#1253=DIRECTION('',(0.,-1.,0.));
#1254=DIRECTION('',(0.,0.,-1.));
#1255=DIRECTION('',(1.,0.,0.));
#1256=DIRECTION('',(-1.,0.,0.));
#1257=DIRECTION('',(0.,0.,-1.));
#1258=DIRECTION('',(-1.,0.,0.));
#1259=DIRECTION('',(0.,0.,-1.));
#1260=DIRECTION('',(0.,-1.,0.));
#1261=DIRECTION('',(0.,0.,-1.));
#1262=DIRECTION('',(1.,0.,-3.46944695195362E-16));
#1263=DIRECTION('',(0.,0.,1.));
#1264=DIRECTION('',(1.,0.,0.));
#1265=DIRECTION('',(0.,0.,1.));
#1266=DIRECTION('',(0.,-1.,0.));
#1267=DIRECTION('',(0.,0.,-1.));
#1268=DIRECTION('',(0.,0.,1.));
#1269=DIRECTION('',(1.,0.,-1.73472347597681E-16));
#1270=DIRECTION('',(0.,0.,1.));
#1271=DIRECTION('',(1.,0.,0.));
#1272=DIRECTION('',(1.,0.,0.));
#1273=DIRECTION('',(0.,0.,-1.));
#1274=DIRECTION('',(0.,1.,0.));
#1275=DIRECTION('',(0.,1.,0.));
#1276=DIRECTION('',(-1.,0.,0.));
#1277=DIRECTION('',(0.,0.,1.));
#1278=DIRECTION('',(-1.,0.,0.));
#1279=DIRECTION('',(0.,0.,1.));
#1280=DIRECTION('',(0.,-1.,0.));
#1281=DIRECTION('',(-2.1350442781253E-16,1.,0.));
#1282=DIRECTION('',(-2.1350442781253E-16,1.,0.));
#1283=DIRECTION('',(0.,-1.,0.));
#1284=DIRECTION('',(-1.,0.,0.));
#1285=DIRECTION('',(0.,0.,1.));
#1286=DIRECTION('',(0.,-1.,0.));
#1287=DIRECTION('',(-2.1350442781253E-16,1.,0.));
#1288=DIRECTION('',(-2.1350442781253E-16,1.,0.));
#1289=DIRECTION('',(0.,-1.,0.));
#1290=DIRECTION('',(2.1350442781253E-16,-1.,0.));
#1291=DIRECTION('',(2.1350442781253E-16,-1.,0.));
#1292=DIRECTION('',(1.,0.,0.));
#1293=DIRECTION('',(0.,0.,-1.));
#1294=DIRECTION('',(-1.,0.,0.));
#1295=DIRECTION('',(0.,0.,1.));
#1296=DIRECTION('',(0.,1.,0.));
#1297=DIRECTION('',(0.,1.,0.));
#1298=DIRECTION('',(0.,0.,1.));
#1299=DIRECTION('',(1.,0.,0.));
#1300=DIRECTION('',(0.,0.,1.));
#1301=DIRECTION('',(1.,0.,0.));
#1302=DIRECTION('',(2.1350442781253E-16,-1.,0.));
#1303=DIRECTION('',(1.,2.1350442781253E-16,0.));
#1304=DIRECTION('',(2.1350442781253E-16,-1.,0.));
#1305=DIRECTION('',(2.1350442781253E-16,-1.,0.));
#1306=DIRECTION('',(1.,2.1350442781253E-16,0.));
#1307=DIRECTION('',(2.1350442781253E-16,-1.,0.));
#1308=DIRECTION('',(0.,0.,1.));
#1309=DIRECTION('',(1.,0.,0.));
#1310=DIRECTION('',(2.1350442781253E-16,-1.,0.));
#1311=DIRECTION('',(2.1350442781253E-16,-1.,0.));
#1312=DIRECTION('',(1.,2.1350442781253E-16,0.));
#1313=DIRECTION('',(2.1350442781253E-16,-1.,0.));
#1314=DIRECTION('',(1.,2.1350442781253E-16,0.));
#1315=DIRECTION('',(-2.1350442781253E-16,1.,0.));
#1316=DIRECTION('',(2.1350442781253E-16,-1.,0.));
#1317=DIRECTION('',(0.,0.,1.));
#1318=DIRECTION('',(1.,0.,0.));
#1319=DIRECTION('',(2.1350442781253E-16,-1.,0.));
#1320=DIRECTION('',(2.1350442781253E-16,-1.,0.));
#1321=DIRECTION('',(1.,2.1350442781253E-16,0.));
#1322=DIRECTION('',(1.73472347597681E-16,3.70371143151392E-32,1.));
#1323=DIRECTION('',(1.,0.,-1.73472347597681E-16));
#1324=DIRECTION('',(3.46944695195362E-16,7.40742286302783E-32,1.));
#1325=DIRECTION('',(1.,0.,-3.46944695195362E-16));
#1326=DIRECTION('',(0.,0.,1.));
#1327=DIRECTION('',(1.,0.,0.));
#1328=DIRECTION('',(-2.1350442781253E-16,1.,0.));
#1329=DIRECTION('',(-2.1350442781253E-16,1.,0.));
#1330=DIRECTION('',(-1.,-2.1350442781253E-16,0.));
#1331=DIRECTION('',(2.1350442781253E-16,-1.,0.));
#1332=DIRECTION('',(-2.1350442781253E-16,1.,0.));
#1333=DIRECTION('',(0.,0.,1.));
#1334=DIRECTION('',(1.,0.,0.));
#1335=DIRECTION('',(-2.1350442781253E-16,1.,0.));
#1336=DIRECTION('',(-1.,-2.1350442781253E-16,0.));
#1337=DIRECTION('',(2.1350442781253E-16,-1.,0.));
#1338=DIRECTION('',(0.,0.,1.));
#1339=DIRECTION('',(1.,0.,0.));
#1340=DIRECTION('',(-2.1350442781253E-16,1.,0.));
#1341=DIRECTION('',(-2.1350442781253E-16,1.,0.));
#1342=DIRECTION('',(-1.,-2.1350442781253E-16,0.));
#1343=DIRECTION('',(2.1350442781253E-16,-1.,0.));
#1344=DIRECTION('',(-2.1350442781253E-16,1.,0.));
#1345=DIRECTION('',(0.,0.,1.));
#1346=DIRECTION('',(1.,0.,0.));
#1347=DIRECTION('',(-2.1350442781253E-16,1.,0.));
#1348=DIRECTION('',(-1.,-2.1350442781253E-16,0.));
#1349=DIRECTION('',(2.1350442781253E-16,-1.,0.));
#1350=DIRECTION('',(-1.,0.,0.));
#1351=DIRECTION('',(0.,0.,1.));
#1352=CARTESIAN_POINT('',(0.,0.,0.));
#1353=CARTESIAN_POINT('',(0.,0.,0.0025));
#1354=CARTESIAN_POINT('',(0.,3.51779793055077E-18,0.0025));
#1355=CARTESIAN_POINT('',(0.05745,3.51779793055077E-18,0.0025));
#1356=CARTESIAN_POINT('',(-0.0525053568695614,-0.0525,0.0025));
#1357=CARTESIAN_POINT('',(-0.0502053568695614,-0.0525,0.0025));
#1358=CARTESIAN_POINT('',(-0.0525053568695614,0.0525,0.0025));
#1359=CARTESIAN_POINT('',(-0.0502053568695614,0.0525,0.0025));
#1360=CARTESIAN_POINT('',(1.35479053249726E-17,-0.0634549150281252,0.0025));
#1361=CARTESIAN_POINT('',(-0.0634549150281253,-0.0634549150281252,0.0025));
#1362=CARTESIAN_POINT('',(0.0634549150281252,-0.0634549150281252,0.0025));
#1363=CARTESIAN_POINT('',(0.0634549150281252,0.,0.0025));
#1364=CARTESIAN_POINT('',(0.0634549150281252,0.0634549150281253,0.0025));
#1365=CARTESIAN_POINT('',(-1.35479053249726E-17,0.0634549150281253,0.0025));
#1366=CARTESIAN_POINT('',(-0.0634549150281253,0.0634549150281252,0.0025));
#1367=CARTESIAN_POINT('',(-0.0634549150281253,0.,0.0025));
#1368=CARTESIAN_POINT('',(0.0525053568695614,-0.0525,0.0025));
#1369=CARTESIAN_POINT('',(0.0548053568695614,-0.0525,0.0025));
#1370=CARTESIAN_POINT('',(0.0525053568695614,0.0525,0.0025));
#1371=CARTESIAN_POINT('',(0.0548053568695614,0.0525,0.0025));
#1372=CARTESIAN_POINT('',(0.,0.,0.));
#1373=CARTESIAN_POINT('',(0.,3.51779793055077E-18,0.));
#1374=CARTESIAN_POINT('',(0.05745,3.51779793055077E-18,0.));
#1375=CARTESIAN_POINT('',(0.0525053568695614,-0.0525,0.));
#1376=CARTESIAN_POINT('',(0.0548053568695614,-0.0525,0.));
#1377=CARTESIAN_POINT('',(-0.0525053568695614,0.0525,0.));
#1378=CARTESIAN_POINT('',(-0.0502053568695614,0.0525,0.));
#1379=CARTESIAN_POINT('',(-1.38777878078145E-17,-0.065,0.));
#1380=CARTESIAN_POINT('',(-0.065,-0.065,0.));
#1381=CARTESIAN_POINT('',(0.065,-0.065,0.));
#1382=CARTESIAN_POINT('',(-0.065,0.,0.));
#1383=CARTESIAN_POINT('',(-0.065,0.065,0.));
#1384=CARTESIAN_POINT('',(0.,0.065,0.));
#1385=CARTESIAN_POINT('',(0.065,0.065,0.));
#1386=CARTESIAN_POINT('',(0.065,0.,0.));
#1387=CARTESIAN_POINT('',(-0.0525053568695614,-0.0525,0.));
#1388=CARTESIAN_POINT('',(-0.0502053568695614,-0.0525,0.));
#1389=CARTESIAN_POINT('',(0.0525053568695614,0.0525,0.));
#1390=CARTESIAN_POINT('',(0.0548053568695614,0.0525,0.));
#1391=CARTESIAN_POINT('',(1.11022302462516E-17,-0.052,-0.026));
#1392=CARTESIAN_POINT('',(0.,-0.08,0.03));
#1393=CARTESIAN_POINT('',(-0.08,-0.08,0.03));
#1394=CARTESIAN_POINT('',(0.08,-0.08,0.03));
#1395=CARTESIAN_POINT('',(-0.065,-0.065,0.));
#1396=CARTESIAN_POINT('',(0.065,-0.065,0.));
#1397=CARTESIAN_POINT('',(-0.052,0.,-0.026));
#1398=CARTESIAN_POINT('',(-0.08,-6.93889390390723E-18,0.03));
#1399=CARTESIAN_POINT('',(-0.08,0.08,0.03));
#1400=CARTESIAN_POINT('',(-0.065,0.065,0.));
#1401=CARTESIAN_POINT('',(-1.11022302462516E-17,0.052,-0.026));
#1402=CARTESIAN_POINT('',(1.38777878078145E-17,0.08,0.03));
#1403=CARTESIAN_POINT('',(0.08,0.08,0.03));
#1404=CARTESIAN_POINT('',(0.065,0.065,0.));
#1405=CARTESIAN_POINT('',(0.052,0.,-0.026));
#1406=CARTESIAN_POINT('',(0.08,2.77555756156289E-17,0.03));
#1407=CARTESIAN_POINT('',(0.,1.38777878078145E-17,0.03));
#1408=CARTESIAN_POINT('',(1.64835912073949E-17,-0.0772049150281252,0.03));
#1409=CARTESIAN_POINT('',(-0.0772049150281253,-0.0772049150281252,0.03));
#1410=CARTESIAN_POINT('',(0.0772049150281253,-0.0772049150281252,0.03));
#1411=CARTESIAN_POINT('',(-0.0772049150281253,1.38777878078145E-17,0.03));
#1412=CARTESIAN_POINT('',(-0.0772049150281253,0.0772049150281252,0.03));
#1413=CARTESIAN_POINT('',(-1.64835912073949E-17,0.0772049150281252,0.03));
#1414=CARTESIAN_POINT('',(0.0772049150281253,0.0772049150281252,0.03));
#1415=CARTESIAN_POINT('',(0.0772049150281252,1.38777878078145E-17,0.03));
#1416=CARTESIAN_POINT('',(1.06248198321655E-17,-0.0497639320225002,-0.02488196601125));
#1417=CARTESIAN_POINT('',(0.0414699433520834,-0.0414699433520835,-0.0414699433520835));
#1418=CARTESIAN_POINT('',(-0.0414699433520836,-0.0414699433520835,-0.0414699433520835));
#1419=CARTESIAN_POINT('',(-0.0497639320225003,0.,-0.0248819660112501));
#1420=CARTESIAN_POINT('',(-0.0652437694101251,1.7347234759768E-18,0.00607770876399966));
#1421=CARTESIAN_POINT('',(-0.0652437694101251,0.0025,0.00607770876399966));
#1422=CARTESIAN_POINT('',(-0.0652437694101251,-0.0025,0.00607770876399966));
#1423=CARTESIAN_POINT('',(-0.066361803398875,-0.0025,0.00831377674149945));
#1424=CARTESIAN_POINT('',(-0.0674798373876249,-0.0025,0.0105498447189992));
#1425=CARTESIAN_POINT('',(-0.0674798373876249,8.67361737988404E-19,0.0105498447189992));
#1426=CARTESIAN_POINT('',(-0.0674798373876249,0.0025,0.0105498447189992));
#1427=CARTESIAN_POINT('',(-0.066361803398875,0.0025,0.00831377674149945));
#1428=CARTESIAN_POINT('',(-0.0414699433520836,0.0414699433520836,-0.0414699433520835));
#1429=CARTESIAN_POINT('',(-1.06248198321656E-17,0.0497639320225003,-0.02488196601125));
#1430=CARTESIAN_POINT('',(0.0414699433520834,0.0414699433520836,-0.0414699433520835));
#1431=CARTESIAN_POINT('',(0.0497639320225002,0.,-0.0248819660112501));
#1432=CARTESIAN_POINT('',(0.0674798373876249,0.,0.0105498447189992));
#1433=CARTESIAN_POINT('',(0.0674798373876249,-0.0025,0.0105498447189992));
#1434=CARTESIAN_POINT('',(0.0674798373876249,0.0025,0.0105498447189992));
#1435=CARTESIAN_POINT('',(0.066361803398875,-0.0025,0.00831377674149945));
#1436=CARTESIAN_POINT('',(0.0652437694101251,-0.0025,0.00607770876399966));
#1437=CARTESIAN_POINT('',(0.0652437694101251,-8.67361737988404E-19,0.00607770876399966));
#1438=CARTESIAN_POINT('',(0.0652437694101251,0.0025,0.00607770876399967));
#1439=CARTESIAN_POINT('',(0.066361803398875,0.0025,0.00831377674149945));
#1440=CARTESIAN_POINT('',(-0.0525053568695614,0.0525,-0.0225));
#1441=CARTESIAN_POINT('',(-0.0525053568695614,-0.0525,-0.0225));
#1442=CARTESIAN_POINT('',(0.0525053568695614,-0.0525,-0.0225));
#1443=CARTESIAN_POINT('',(0.0525053568695614,0.0525,-0.0225));
#1444=CARTESIAN_POINT('',(0.,3.51779793055077E-18,-1.99999999999983E-6));
#1445=CARTESIAN_POINT('',(-4.44389502063565E-19,0.,0.00607770876399966));
#1446=CARTESIAN_POINT('',(0.0652437694101251,0.0025,0.00607770876399967));
#1447=CARTESIAN_POINT('',(0.0652437694101251,-0.0025,0.00607770876399966));
#1448=CARTESIAN_POINT('',(1.60670537223959E-20,0.0025,-4.92903478667306E-19));
#1449=CARTESIAN_POINT('',(0.0674798373876249,0.0025,0.0105498447189992));
#1450=CARTESIAN_POINT('',(-2.71207874980952E-19,0.,0.0105498447189992));
#1451=CARTESIAN_POINT('',(0.0674798373876249,-0.0025,0.0105498447189992));
#1452=CARTESIAN_POINT('',(-4.98531361210983E-20,-0.0025,5.09796519866658E-19));
#1453=CARTESIAN_POINT('',(0.,0.,0.));
#1454=CARTESIAN_POINT('',(0.,0.065,-0.035));
#1455=CARTESIAN_POINT('',(0.,0.065,0.));
#1456=CARTESIAN_POINT('',(0.065,0.065,0.));
#1457=CARTESIAN_POINT('',(-0.065,0.065,0.));
#1458=CARTESIAN_POINT('',(0.065,0.065,-0.035));
#1459=CARTESIAN_POINT('',(0.065,0.065,-0.035));
#1460=CARTESIAN_POINT('',(0.,0.065,-0.035));
#1461=CARTESIAN_POINT('',(-0.065,0.065,-0.035));
#1462=CARTESIAN_POINT('',(-0.065,0.065,-0.035));
#1463=CARTESIAN_POINT('',(-0.06,0.065,-0.03));
#1464=CARTESIAN_POINT('',(-0.06,0.065,-0.032));
#1465=CARTESIAN_POINT('',(-0.06,0.065,-0.028));
#1466=CARTESIAN_POINT('',(0.05,0.065,-0.032));
#1467=CARTESIAN_POINT('',(0.06,0.065,-0.032));
#1468=CARTESIAN_POINT('',(0.06,0.065,-0.03));
#1469=CARTESIAN_POINT('',(0.06,0.065,-0.028));
#1470=CARTESIAN_POINT('',(0.05,0.065,-0.028));
#1471=CARTESIAN_POINT('',(-1.38777878078145E-17,-0.065,-0.035));
#1472=CARTESIAN_POINT('',(-1.38777878078145E-17,-0.065,-0.032));
#1473=CARTESIAN_POINT('',(0.03,-0.065,-0.032));
#1474=CARTESIAN_POINT('',(0.04,-0.065,-0.032));
#1475=CARTESIAN_POINT('',(0.03,-0.065,-0.035));
#1476=CARTESIAN_POINT('',(0.03,-0.065,-0.028));
#1477=CARTESIAN_POINT('',(-1.38777878078145E-17,-0.065,-0.028));
#1478=CARTESIAN_POINT('',(0.04,-0.065,-0.028));
#1479=CARTESIAN_POINT('',(0.04,-0.065,-0.035));
#1480=CARTESIAN_POINT('',(-1.38777878078145E-17,-0.065,0.));
#1481=CARTESIAN_POINT('',(0.065,-0.065,0.));
#1482=CARTESIAN_POINT('',(-0.065,-0.065,0.));
#1483=CARTESIAN_POINT('',(-0.065,-0.065,-0.035));
#1484=CARTESIAN_POINT('',(-0.065,-0.065,-0.035));
#1485=CARTESIAN_POINT('',(-1.38777878078145E-17,-0.065,-0.035));
#1486=CARTESIAN_POINT('',(0.065,-0.065,-0.035));
#1487=CARTESIAN_POINT('',(0.065,-0.065,-0.035));
#1488=CARTESIAN_POINT('',(0.058,-0.065,-0.025));
#1489=CARTESIAN_POINT('',(0.058,-0.065,-0.027));
#1490=CARTESIAN_POINT('',(0.06,-0.065,-0.025));
#1491=CARTESIAN_POINT('',(0.054,-0.065,-0.027));
#1492=CARTESIAN_POINT('',(0.05,-0.065,-0.027));
#1493=CARTESIAN_POINT('',(0.05,-0.065,-0.025));
#1494=CARTESIAN_POINT('',(0.048,-0.065,-0.025));
#1495=CARTESIAN_POINT('',(0.048,-0.065,-0.024));
#1496=CARTESIAN_POINT('',(0.048,-0.065,-0.023));
#1497=CARTESIAN_POINT('',(0.05,-0.065,-0.023));
#1498=CARTESIAN_POINT('',(0.05,-0.065,-0.021));
#1499=CARTESIAN_POINT('',(0.054,-0.065,-0.021));
#1500=CARTESIAN_POINT('',(0.058,-0.065,-0.021));
#1501=CARTESIAN_POINT('',(0.058,-0.065,-0.023));
#1502=CARTESIAN_POINT('',(0.06,-0.065,-0.023));
#1503=CARTESIAN_POINT('',(0.06,-0.065,-0.024));
#1504=CARTESIAN_POINT('',(-1.38777878078145E-17,-0.065,-0.032));
#1505=CARTESIAN_POINT('',(-0.04,-0.065,-0.032));
#1506=CARTESIAN_POINT('',(-0.03,-0.065,-0.032));
#1507=CARTESIAN_POINT('',(-0.04,-0.065,-0.035));
#1508=CARTESIAN_POINT('',(-0.04,-0.065,-0.028));
#1509=CARTESIAN_POINT('',(-1.38777878078145E-17,-0.065,-0.028));
#1510=CARTESIAN_POINT('',(-0.03,-0.065,-0.028));
#1511=CARTESIAN_POINT('',(-0.03,-0.065,-0.035));
#1512=CARTESIAN_POINT('',(0.,-0.06,-0.035));
#1513=CARTESIAN_POINT('',(0.,-0.06,-0.032));
#1514=CARTESIAN_POINT('',(0.04,-0.06,-0.032));
#1515=CARTESIAN_POINT('',(0.03,-0.06,-0.032));
#1516=CARTESIAN_POINT('',(0.04,-0.06,-0.035));
#1517=CARTESIAN_POINT('',(0.04,-0.06,-0.028));
#1518=CARTESIAN_POINT('',(0.,-0.06,-0.028));
#1519=CARTESIAN_POINT('',(0.03,-0.06,-0.028));
#1520=CARTESIAN_POINT('',(0.03,-0.06,-0.035));
#1521=CARTESIAN_POINT('',(0.058,-0.06,-0.025));
#1522=CARTESIAN_POINT('',(0.06,-0.06,-0.025));
#1523=CARTESIAN_POINT('',(0.058,-0.06,-0.027));
#1524=CARTESIAN_POINT('',(0.06,-0.06,-0.035));
#1525=CARTESIAN_POINT('',(0.06,-0.06,-0.035));
#1526=CARTESIAN_POINT('',(0.,-0.06,-0.035));
#1527=CARTESIAN_POINT('',(-0.06,-0.06,-0.035));
#1528=CARTESIAN_POINT('',(-0.06,-0.06,-0.035));
#1529=CARTESIAN_POINT('',(-0.06,-0.06,-0.026));
#1530=CARTESIAN_POINT('',(-0.06,-0.06,-0.035));
#1531=CARTESIAN_POINT('',(-0.06,-0.06,0.));
#1532=CARTESIAN_POINT('',(0.,-0.06,0.));
#1533=CARTESIAN_POINT('',(0.06,-0.06,0.));
#1534=CARTESIAN_POINT('',(0.06,-0.06,-0.035));
#1535=CARTESIAN_POINT('',(0.06,-0.06,-0.023));
#1536=CARTESIAN_POINT('',(0.058,-0.06,-0.023));
#1537=CARTESIAN_POINT('',(0.058,-0.06,-0.021));
#1538=CARTESIAN_POINT('',(0.054,-0.06,-0.021));
#1539=CARTESIAN_POINT('',(0.05,-0.06,-0.021));
#1540=CARTESIAN_POINT('',(0.05,-0.06,-0.023));
#1541=CARTESIAN_POINT('',(0.048,-0.06,-0.023));
#1542=CARTESIAN_POINT('',(0.048,-0.06,-0.024));
#1543=CARTESIAN_POINT('',(0.048,-0.06,-0.025));
#1544=CARTESIAN_POINT('',(0.05,-0.06,-0.025));
#1545=CARTESIAN_POINT('',(0.05,-0.06,-0.027));
#1546=CARTESIAN_POINT('',(0.054,-0.06,-0.027));
#1547=CARTESIAN_POINT('',(0.,-0.06,-0.032));
#1548=CARTESIAN_POINT('',(-0.03,-0.06,-0.032));
#1549=CARTESIAN_POINT('',(-0.04,-0.06,-0.032));
#1550=CARTESIAN_POINT('',(-0.03,-0.06,-0.035));
#1551=CARTESIAN_POINT('',(-0.03,-0.06,-0.028));
#1552=CARTESIAN_POINT('',(0.,-0.06,-0.028));
#1553=CARTESIAN_POINT('',(-0.04,-0.06,-0.028));
#1554=CARTESIAN_POINT('',(-0.04,-0.06,-0.035));
#1555=CARTESIAN_POINT('',(0.,0.06,-0.035));
#1556=CARTESIAN_POINT('',(0.05,0.06,-0.032));
#1557=CARTESIAN_POINT('',(-0.06,0.06,-0.032));
#1558=CARTESIAN_POINT('',(0.06,0.06,-0.032));
#1559=CARTESIAN_POINT('',(-0.06,0.06,-0.035));
#1560=CARTESIAN_POINT('',(-0.06,0.06,-0.035));
#1561=CARTESIAN_POINT('',(0.,0.06,-0.035));
#1562=CARTESIAN_POINT('',(0.06,0.06,-0.035));
#1563=CARTESIAN_POINT('',(0.06,0.06,-0.035));
#1564=CARTESIAN_POINT('',(0.,0.06,-0.035));
#1565=CARTESIAN_POINT('',(-0.06,0.06,-0.035));
#1566=CARTESIAN_POINT('',(-0.06,0.06,-0.028));
#1567=CARTESIAN_POINT('',(-0.06,0.06,0.));
#1568=CARTESIAN_POINT('',(0.05,0.06,-0.028));
#1569=CARTESIAN_POINT('',(0.06,0.06,-0.028));
#1570=CARTESIAN_POINT('',(0.06,0.06,-0.035));
#1571=CARTESIAN_POINT('',(0.06,0.06,0.));
#1572=CARTESIAN_POINT('',(0.,0.06,0.));
#1573=CARTESIAN_POINT('',(0.065,0.,-0.035));
#1574=CARTESIAN_POINT('',(0.065,0.,0.));
#1575=CARTESIAN_POINT('',(0.065,0.,-0.035));
#1576=CARTESIAN_POINT('',(-0.06,6.93889390390723E-18,-0.035));
#1577=CARTESIAN_POINT('',(-0.06,-0.056,-0.026));
#1578=CARTESIAN_POINT('',(-0.06,6.93889390390723E-18,-0.035));
#1579=CARTESIAN_POINT('',(-0.06,-0.065002,-0.032));
#1580=CARTESIAN_POINT('',(-0.06,-0.065002,-0.028));
#1581=CARTESIAN_POINT('',(-0.06,6.93889390390723E-18,0.));
#1582=CARTESIAN_POINT('',(0.06,0.,-0.035));
#1583=CARTESIAN_POINT('',(0.06,0.,0.));
#1584=CARTESIAN_POINT('',(0.06,-0.065002,-0.028));
#1585=CARTESIAN_POINT('',(0.06,-0.065002,-0.032));
#1586=CARTESIAN_POINT('',(0.06,0.,-0.035));
#1587=CARTESIAN_POINT('',(0.06,0.065002,-0.025));
#1588=CARTESIAN_POINT('',(0.06,0.065002,-0.023));
#1589=CARTESIAN_POINT('',(-0.065,0.,-0.035));
#1590=CARTESIAN_POINT('',(-0.065,-0.056,-0.026));
#1591=CARTESIAN_POINT('',(-0.065,-0.056,-0.022));
#1592=CARTESIAN_POINT('',(-0.065,0.,0.));
#1593=CARTESIAN_POINT('',(-0.065,0.,-0.035));
#1594=CARTESIAN_POINT('',(0.,1.38777878078145E-17,-0.035));
#1595=CARTESIAN_POINT('',(0.,1.38777878078145E-17,0.));
#1596=CARTESIAN_POINT('',(0.058,0.065002,-0.025));
#1597=CARTESIAN_POINT('',(0.058,0.065002,-0.027));
#1598=CARTESIAN_POINT('',(0.058,0.065002,-0.023));
#1599=CARTESIAN_POINT('',(0.058,0.065002,-0.021));
#1600=CARTESIAN_POINT('',(0.054,0.065002,-0.021));
#1601=CARTESIAN_POINT('',(0.05,0.065002,-0.021));
#1602=CARTESIAN_POINT('',(0.05,0.065002,-0.023));
#1603=CARTESIAN_POINT('',(0.048,0.065002,-0.023));
#1604=CARTESIAN_POINT('',(0.048,0.065002,-0.024));
#1605=CARTESIAN_POINT('',(0.048,0.065002,-0.025));
#1606=CARTESIAN_POINT('',(0.054,0.065002,-0.027));
#1607=CARTESIAN_POINT('',(0.05,0.065002,-0.027));
#1608=CARTESIAN_POINT('',(0.05,0.065002,-0.025));
#1609=CARTESIAN_POINT('',(0.05,-0.065002,-0.028));
#1610=CARTESIAN_POINT('',(0.05,-0.065002,-0.032));
#1611=CARTESIAN_POINT('',(0.035,-0.170435147339871,-0.032));
#1612=CARTESIAN_POINT('',(0.04,-0.170435147339871,-0.032));
#1613=CARTESIAN_POINT('',(0.03,-0.170435147339871,-0.032));
#1614=CARTESIAN_POINT('',(0.03,-0.170435147339871,-0.03));
#1615=CARTESIAN_POINT('',(0.03,-0.170435147339871,-0.028));
#1616=CARTESIAN_POINT('',(0.035,-0.170435147339871,-0.028));
#1617=CARTESIAN_POINT('',(0.04,-0.170435147339871,-0.028));
#1618=CARTESIAN_POINT('',(0.04,-0.170435147339871,-0.03));
#1619=CARTESIAN_POINT('',(-0.035,-0.170435147339871,-0.032));
#1620=CARTESIAN_POINT('',(-0.03,-0.170435147339871,-0.032));
#1621=CARTESIAN_POINT('',(-0.04,-0.170435147339871,-0.032));
#1622=CARTESIAN_POINT('',(-0.04,-0.170435147339871,-0.03));
#1623=CARTESIAN_POINT('',(-0.04,-0.170435147339871,-0.028));
#1624=CARTESIAN_POINT('',(-0.035,-0.170435147339871,-0.028));
#1625=CARTESIAN_POINT('',(-0.03,-0.170435147339871,-0.028));
#1626=CARTESIAN_POINT('',(-0.03,-0.170435147339871,-0.03));
#1627=CARTESIAN_POINT('',(0.065002,-0.056,-0.026));
#1628=MECHANICAL_DESIGN_GEOMETRIC_PRESENTATION_REPRESENTATION('',(#1005),
#1630);
#1629=MECHANICAL_DESIGN_GEOMETRIC_PRESENTATION_REPRESENTATION('',(#1006),
#1631);
#1630=(
GEOMETRIC_REPRESENTATION_CONTEXT(3)
GLOBAL_UNCERTAINTY_ASSIGNED_CONTEXT((#1632))
GLOBAL_UNIT_ASSIGNED_CONTEXT((#1638,#1636,#1634))
REPRESENTATION_CONTEXT('Part 1','TOP_LEVEL_ASSEMBLY_PART')
);
#1631=(
GEOMETRIC_REPRESENTATION_CONTEXT(3)
GLOBAL_UNCERTAINTY_ASSIGNED_CONTEXT((#1633))
GLOBAL_UNIT_ASSIGNED_CONTEXT((#1639,#1637,#1635))
REPRESENTATION_CONTEXT('Part 2','TOP_LEVEL_ASSEMBLY_PART')
);
#1632=UNCERTAINTY_MEASURE_WITH_UNIT(LENGTH_MEASURE(1.E-8),#1638,
'DISTANCE_ACCURACY_VALUE','Maximum Tolerance applied to model');
#1633=UNCERTAINTY_MEASURE_WITH_UNIT(LENGTH_MEASURE(1.E-8),#1639,
'DISTANCE_ACCURACY_VALUE','Maximum Tolerance applied to model');
#1634=(
NAMED_UNIT(*)
SI_UNIT($,.STERADIAN.)
SOLID_ANGLE_UNIT()
);
#1635=(
NAMED_UNIT(*)
SI_UNIT($,.STERADIAN.)
SOLID_ANGLE_UNIT()
);
#1636=(
NAMED_UNIT(*)
PLANE_ANGLE_UNIT()
SI_UNIT($,.RADIAN.)
);
#1637=(
NAMED_UNIT(*)
PLANE_ANGLE_UNIT()
SI_UNIT($,.RADIAN.)
);
#1638=(
LENGTH_UNIT()
NAMED_UNIT(*)
SI_UNIT($,.METRE.)
);
#1639=(
LENGTH_UNIT()
NAMED_UNIT(*)
SI_UNIT($,.METRE.)
);
#1640=PRODUCT_DEFINITION_SHAPE('','',#1642);
#1641=PRODUCT_DEFINITION_SHAPE('','',#1643);
#1642=PRODUCT_DEFINITION('','',#1646,#1644);
#1643=PRODUCT_DEFINITION('','',#1647,#1645);
#1644=PRODUCT_DEFINITION_CONTEXT('',#1658,'design');
#1645=PRODUCT_DEFINITION_CONTEXT('',#1659,'design');
#1646=PRODUCT_DEFINITION_FORMATION_WITH_SPECIFIED_SOURCE('','',#1650,
 .NOT_KNOWN.);
#1647=PRODUCT_DEFINITION_FORMATION_WITH_SPECIFIED_SOURCE('','',#1651,
 .NOT_KNOWN.);
#1648=PRODUCT_RELATED_PRODUCT_CATEGORY('','',(#1650));
#1649=PRODUCT_RELATED_PRODUCT_CATEGORY('','',(#1651));
#1650=PRODUCT('Part 1','Part 1','Part 1',(#1654));
#1651=PRODUCT('Part 2','Part 2','Part 2',(#1655));
#1652=PRODUCT_CATEGORY('','');
#1653=PRODUCT_CATEGORY('','');
#1654=PRODUCT_CONTEXT('',#1658,'mechanical');
#1655=PRODUCT_CONTEXT('',#1659,'mechanical');
#1656=APPLICATION_PROTOCOL_DEFINITION('international standard',
'ap242_managed_model_based_3d_engineering',2020,#1658);
#1657=APPLICATION_PROTOCOL_DEFINITION('international standard',
'ap242_managed_model_based_3d_engineering',2020,#1659);
#1658=APPLICATION_CONTEXT('managed model based 3d engineering');
#1659=APPLICATION_CONTEXT('managed model based 3d engineering');
ENDSEC;
END-ISO-10303-21;
